<svg width="40" height="40" viewBox="0 0 40 40" fill="none" xmlns="http://www.w3.org/2000/svg">
<path d="M20 40C31.0457 40 40 31.0457 40 20C40 8.9543 31.0457 0 20 0C8.9543 0 0 8.9543 0 20C0 31.0457 8.9543 40 20 40Z" fill="#7BD15F"/>
<path d="M6.89209 12.2252V27.7582L14.4669 19.9603L6.89209 12.2252Z" fill="white"/>
<path d="M33.1085 12.2252V27.7582L25.5713 19.9917L33.1085 12.2252Z" fill="white"/>
<path d="M7.46582 11.5208H32.4857L22.6525 21.7597C21.9527 22.4883 20.9861 22.9002 19.9758 22.9002C18.9656 22.9002 17.9989 22.4883 17.2991 21.7597L7.46582 11.5208Z" fill="white"/>
<path d="M23.2198 22.3044C22.3761 23.1828 21.1938 23.6867 19.9758 23.6867C18.7579 23.6867 17.5755 23.183 16.7319 22.3045L15.064 20.5677L7.46582 28.4792H32.4857L24.8876 20.5677L23.2198 22.3044Z" fill="white"/>
</svg>
