<svg id="emctteczouk91" xmlns="http://www.w3.org/2000/svg" xmlns:xlink="http://www.w3.org/1999/xlink" viewBox="0 0 70 55" shape-rendering="geometricPrecision" text-rendering="geometricPrecision"><style><![CDATA[#emctteczouk93_to {animation: emctteczouk93_to__to 9900ms linear 1 normal forwards}@keyframes emctteczouk93_to__to { 0% {transform: translate(36.700000px,47.250000px)} 3.030303% {transform: translate(36.700000px,46.250000px)} 6.060606% {transform: translate(36.700000px,47.250000px)} 9.090909% {transform: translate(36.700000px,46.250000px)} 12.121212% {transform: translate(36.700000px,47.250000px)} 15.151515% {transform: translate(36.700000px,46.250000px)} 18.181818% {transform: translate(36.700000px,47.250000px)} 21.212121% {transform: translate(36.700000px,46.250000px)} 24.242424% {transform: translate(36.700000px,47.250000px)} 27.272727% {transform: translate(36.700000px,46.250000px)} 30.303030% {transform: translate(36.700000px,47.250000px)} 33.333333% {transform: translate(36.700000px,46.250000px)} 36.363636% {transform: translate(36.700000px,47.250000px)} 39.393939% {transform: translate(36.700000px,46.250000px)} 42.424242% {transform: translate(36.700000px,47.250000px)} 45.454545% {transform: translate(36.700000px,46.250000px)} 48.484848% {transform: translate(36.700000px,47.250000px)} 51.515152% {transform: translate(36.700000px,46.250000px)} 54.545455% {transform: translate(36.700000px,47.250000px)} 57.575758% {transform: translate(36.700000px,46.250000px)} 60.606061% {transform: translate(36.700000px,47.250000px)} 63.636364% {transform: translate(36.700000px,46.250000px)} 66.666667% {transform: translate(36.700000px,47.250000px)} 69.696970% {transform: translate(36.700000px,46.250000px)} 72.727273% {transform: translate(36.700000px,47.250000px)} 75.757576% {transform: translate(36.700000px,46.250000px)} 78.787879% {transform: translate(36.700000px,47.250000px)} 81.818182% {transform: translate(36.700000px,46.250000px)} 84.848485% {transform: translate(36.700000px,47.250000px)} 87.878788% {transform: translate(36.700000px,46.250000px)} 90.909091% {transform: translate(36.700000px,47.250000px)} 93.939394% {transform: translate(36.700000px,46.250000px)} 96.969697% {transform: translate(36.700000px,47.250000px)} 100% {transform: translate(36.700000px,46.250000px)} }]]></style><g id="emctteczouk92"/><g id="emctteczouk93_to" transform="translate(36.700000,47.250000)"><g id="emctteczouk93" transform="translate(-36.700000,-47.250000)"><g id="emctteczouk94"><path id="emctteczouk95" d="M48.500000,42.700000C48.500000,42.700000,53.300000,40.500000,53.400000,40.500000C53.500000,40.500000,56.400000,41.300000,56.400000,41.300000L59.900000,44.200000C59.900000,44.200000,60.800000,47.500000,60.800000,47.900000C60.800000,48.300000,59.300000,51.500000,59.300000,51.500000L56.700000,53.200000L53.400000,54C53.400000,54,49,52.500000,48.900000,52.300000C48.800000,52.200000,46.800000,48.100000,46.800000,48.100000L47.800000,44.300000L48.500000,42.700000Z" fill="rgb(249,215,190)" stroke="none" stroke-width="1"/><path id="emctteczouk96" d="M61.600000,47.100000C61.600000,46.900000,61.500000,46.400000,61.500000,46.400000C61.100000,42.500000,57.800000,39.500000,53.800000,39.500000C49.800000,39.500000,46.600000,42.400000,46.100000,46.200000C46.100000,46.900000,46.100000,47.600000,46.100000,48.400000L46.100000,48.400000C46.700000,52.100000,49.900000,55,53.800000,55C57.700000,55,60.900000,52.100000,61.500000,48.400000C61.500000,48.400000,61.600000,47.600000,61.600000,47.100000ZM53.800000,53C50.600000,53,48,50.400000,48,47.200000C48,44,50.600000,41.400000,53.800000,41.400000C57,41.400000,59.600000,44,59.600000,47.200000C59.500000,50.400000,57,53,53.800000,53Z" fill="rgb(247,138,51)" stroke="none" stroke-width="1"/><path id="emctteczouk97" d="M53.800000,43.600000C51.700000,43.600000,50.100000,45.300000,50.100000,47.300000C50.100000,49.300000,51.800000,51,53.800000,51C55.900000,51,57.500000,49.300000,57.500000,47.300000C57.500000,45.200000,55.800000,43.600000,53.800000,43.600000ZM53.800000,49C52.900000,49,52.100000,48.200000,52.100000,47.300000C52.100000,46.400000,52.900000,45.600000,53.800000,45.600000C54.700000,45.600000,55.500000,46.400000,55.500000,47.300000C55.500000,48.200000,54.700000,49,53.800000,49Z" fill="rgb(247,138,51)" stroke="none" stroke-width="1"/></g><g id="emctteczouk98"><path id="emctteczouk99" d="M14.300000,42.700000C14.300000,42.700000,19.100000,40.500000,19.200000,40.500000C19.300000,40.500000,22.200000,41.300000,22.200000,41.300000L25.700000,44.200000C25.700000,44.200000,26.600000,47.500000,26.600000,47.900000C26.600000,48.300000,25.100000,51.500000,25.100000,51.500000L22.500000,53.200000L19.200000,54C19.200000,54,14.800000,52.500000,14.700000,52.300000C14.600000,52.100000,12.600000,48.100000,12.600000,48.100000L13.600000,44.300000L14.300000,42.700000Z" fill="rgb(249,215,190)" stroke="none" stroke-width="1"/><path id="emctteczouk910" d="M27.300000,47.100000C27.300000,46.900000,27.200000,46.400000,27.200000,46.400000C26.800000,42.500000,23.500000,39.500000,19.500000,39.500000C15.500000,39.500000,12.300000,42.400000,11.800000,46.200000C11.800000,46.900000,11.800000,47.600000,11.800000,48.400000L11.800000,48.400000C12.400000,52.100000,15.600000,55,19.500000,55C23.400000,55,26.600000,52.100000,27.200000,48.400000C27.200000,48.400000,27.300000,47.600000,27.300000,47.100000ZM19.500000,53C16.300000,53,13.700000,50.400000,13.700000,47.200000C13.700000,44,16.300000,41.400000,19.500000,41.400000C22.700000,41.400000,25.300000,44,25.300000,47.200000C25.300000,50.400000,22.700000,53,19.500000,53Z" fill="rgb(247,138,51)" stroke="none" stroke-width="1"/><path id="emctteczouk911" d="M19.500000,43.600000C17.400000,43.600000,15.800000,45.300000,15.800000,47.300000C15.800000,49.300000,17.500000,51,19.500000,51C21.500000,51,23.200000,49.300000,23.200000,47.300000C23.300000,45.200000,21.600000,43.600000,19.500000,43.600000ZM19.500000,49C18.600000,49,17.800000,48.200000,17.800000,47.300000C17.800000,46.400000,18.600000,45.600000,19.500000,45.600000C20.400000,45.600000,21.200000,46.400000,21.200000,47.300000C21.200000,48.200000,20.500000,49,19.500000,49Z" fill="rgb(247,138,51)" stroke="none" stroke-width="1"/></g></g></g><path id="emctteczouk912" d="M29.500000,15.400000C29.600000,15.200000,38.300000,5.300000,38.300000,5.300000L50,1L63.300000,3.100000L68.900000,17.500000L68.500000,19L61.500000,28.500000L51.800000,32.400000L35.900000,32L33.800000,29.300000L29.500000,15.400000Z" fill="rgb(200,217,243)" stroke="none" stroke-width="1"/><g id="emctteczouk913"><path id="emctteczouk914" d="M70,34.900000L70,34.900000C69.900000,33,68.300000,31.400000,66.300000,31.400000L57,31.400000L60.200000,30.200000C60.900000,29.900000,61.600000,29.500000,62.100000,28.900000L68.700000,21.100000C69.800000,19.800000,70.100000,18.100000,69.500000,16.500000L65.100000,4.500000C64.500000,2.900000,63.100000,1.800000,61.400000,1.600000L51.200000,0.100000C50.400000,0,49.600000,0.100000,48.900000,0.400000L38.200000,4.400000C37.500000,4.700000,36.800000,5.100000,36.300000,5.700000L29.700000,13.500000C29.600000,13.600000,29.600000,13.700000,29.500000,13.700000C29,13,28.100000,12.500000,27.100000,12.500000L14.100000,12.500000C12.900000,12.500000,11.700000,13.100000,11,14.200000L8.600000,17.900000C8.400000,18.400000,8.500000,19,9,19.300000C9.500000,19.600000,10.100000,19.500000,10.400000,19L12.800000,15.300000C13.100000,14.800000,13.600000,14.500000,14.200000,14.500000L21.400000,14.500000L21.400000,24C21.400000,24.500000,21,25,20.400000,25L6.400000,25L7.900000,22.800000C8.200000,22.300000,8.100000,21.700000,7.600000,21.400000C7.100000,21.100000,6.500000,21.200000,6.200000,21.700000L4.600000,24.200000C3.900000,25.200000,3.600000,26.400000,3.600000,27.600000L3.600000,29.700000C1.600000,29.800000,0,31.500000,0,33.500000C0,35.500000,1.600000,37.200000,3.600000,37.300000L3.600000,39.200000C3.600000,40.300000,4.100000,41.300000,5,42L8.600000,44.800000L8.600000,46.700000C8.600000,47.600000,9.300000,48.400000,10.300000,48.400000L11.300000,48.400000C11.300000,47.700000,11.300000,47.100000,11.300000,46.400000L10.700000,46.400000L10.700000,43.800000C10.700000,43.300000,10.800000,42.900000,11.100000,42.400000L13.500000,38.300000C13.800000,37.800000,14.400000,37.500000,14.900000,37.500000L24.600000,37.500000C25.200000,37.500000,25.700000,37.800000,26,38.300000L28.400000,42.400000C28.600000,42.800000,28.800000,43.300000,28.800000,43.800000L28.800000,46.400000L28,46.400000C28,46.600000,28,46.900000,28,47.100000C28,47.500000,27.900000,47.900000,27.900000,48.400000L28.800000,48.400000C29.700000,48.400000,30.500000,47.700000,30.500000,46.700000L30.500000,46.400000L42.700000,46.400000L42.700000,46.700000C42.700000,47.600000,43.400000,48.400000,44.400000,48.400000L45.300000,48.400000C45.300000,48.100000,45.300000,47.800000,45.300000,47.500000C45.300000,47.100000,45.300000,46.800000,45.300000,46.400000L44.700000,46.400000L44.700000,43.800000C44.700000,43.300000,44.800000,42.900000,45.100000,42.400000L47.500000,38.300000C47.800000,37.800000,48.400000,37.500000,48.900000,37.500000L58.600000,37.500000C59.200000,37.500000,59.700000,37.800000,60,38.300000L62.400000,42.400000C62.600000,42.800000,62.800000,43.300000,62.800000,43.800000L62.800000,46.400000L62.100000,46.400000C62.100000,46.800000,62.100000,47.200000,62.100000,47.600000C62.100000,47.900000,62.100000,48.100000,62.100000,48.400000L63.100000,48.400000C64,48.400000,64.800000,47.700000,64.800000,46.700000L64.800000,46.400000L67.700000,46.400000C69,46.400000,70,45.400000,70,44.100000L70,34.900000C70,34.900000,70,34.900000,70,34.900000ZM3.600000,35.400000C2.700000,35.200000,2,34.500000,2,33.500000L2,33.500000C2,32.600000,2.700000,31.800000,3.600000,31.700000L3.600000,35.400000ZM9.100000,41.500000C8.900000,41.800000,8.800000,42.200000,8.700000,42.500000L6.200000,40.500000C5.800000,40.200000,5.500000,39.600000,5.600000,39.100000L10.500000,39.100000L9.100000,41.500000ZM28.100000,37.100000L27.400000,37.100000C26.700000,36.100000,25.600000,35.500000,24.400000,35.500000L14.700000,35.500000C13.500000,35.500000,12.400000,36.100000,11.700000,37.100000L5.600000,37.100000L5.600000,27.600000C5.600000,27.400000,5.600000,27.200000,5.600000,27L20.300000,27C22,27,23.300000,25.700000,23.300000,24L23.300000,14.500000L27,14.500000C27.600000,14.500000,28,14.900000,28,15.500000L28,37.100000ZM61.100000,3.500000C62,3.600000,62.900000,4.300000,63.200000,5.200000L67.800000,17.100000C68.100000,18,68,19,67.400000,19.700000L61.100000,27L51.600000,2.100000L61.100000,3.500000ZM31.200000,14.800000L31.200000,14.800000L37.700000,7.100000L39.200000,11.100000C39.400000,11.600000,40,11.900000,40.500000,11.700000C41,11.500000,41.300000,10.900000,41.100000,10.400000L39.400000,6L49.500000,2.200000L59.500000,28.400000L51.500000,31.400000L49.100000,31.400000L42.600000,14.500000C42.400000,14,41.800000,13.700000,41.300000,13.900000C40.800000,14.100000,40.500000,14.700000,40.700000,15.200000L47,31.400000L40.200000,31.400000L37.400000,31C36.500000,30.900000,35.700000,30.200000,35.300000,29.300000L30.700000,17.400000C30.400000,16.500000,30.600000,15.500000,31.200000,14.800000ZM30.100000,21.300000L32,26.200000L30.100000,26.900000L30.100000,21.300000ZM32.700000,28L33.500000,30C33.700000,30.500000,34,31,34.300000,31.400000L30.100000,31.400000L30.100000,29L30.100000,29L32.700000,28ZM43.400000,41.500000C43,42.200000,42.800000,43,42.800000,43.900000L42.800000,44.500000L30.600000,44.500000L30.600000,43.900000C30.600000,43.100000,30.400000,42.300000,30,41.500000L28.600000,39.200000L44.800000,39.200000L43.400000,41.500000ZM68,44.100000C68,44.300000,67.900000,44.400000,67.700000,44.400000L64.800000,44.400000L64.800000,43.800000C64.800000,43,64.600000,42.200000,64.200000,41.400000L62.800000,39.100000L68,39.100000L68,44.100000ZM61.600000,37.100000C60.900000,36.100000,59.800000,35.500000,58.600000,35.500000L48.900000,35.500000C47.700000,35.500000,46.600000,36.100000,45.900000,37.100000L30.100000,37.100000L30.100000,33.400000L66.300000,33.400000C67.200000,33.400000,68,34.100000,68,35.100000L68,37.200000L61.600000,37.200000Z" fill="rgb(80,104,142)" stroke="none" stroke-width="1"/><path id="emctteczouk915" d="M16.500000,31.300000L19.400000,31.300000C20,31.300000,20.400000,30.900000,20.400000,30.300000C20.400000,29.800000,20,29.300000,19.400000,29.300000L16.500000,29.300000C15.900000,29.300000,15.500000,29.700000,15.500000,30.300000C15.500000,30.800000,15.900000,31.300000,16.500000,31.300000Z" fill="rgb(247,132,40)" stroke="none" stroke-width="1"/></g></svg>