<?xml version="1.0" encoding="utf-8"?>
<!-- Generator: Adobe Illustrator 21.1.0, SVG Export Plug-In . SVG Version: 6.00 Build 0)  -->
<svg version="1.1" id="Capa_1" xmlns="http://www.w3.org/2000/svg" xmlns:xlink="http://www.w3.org/1999/xlink" x="0px" y="0px"
	 viewBox="0 0 70 55" style="enable-background:new 0 0 70 55;" xml:space="preserve">
<style type="text/css">
	.st0{fill:#F9D7BE;}
	.st1{fill:#C8D9F3;}
	.st2{fill:#50688E;}
	.st3{fill:#F78A33;}
	.st4{fill:#F78428;}
</style>
<g id="Layer_2">
	<path class="st0" d="M14.3,42.7c0,0,4.8-2.2,4.9-2.2c0.1,0,3,0.8,3,0.8l3.5,2.9c0,0,0.9,3.3,0.9,3.7s-1.5,3.6-1.5,3.6l-2.6,1.7
		L19.2,54c0,0-4.4-1.5-4.5-1.7s-2.1-4.2-2.1-4.2l1-3.8L14.3,42.7z"/>
</g>
<path class="st0" d="M48.5,42.7c0,0,4.8-2.2,4.9-2.2c0.1,0,3,0.8,3,0.8l3.5,2.9c0,0,0.9,3.3,0.9,3.7s-1.5,3.6-1.5,3.6l-2.6,1.7
	L53.4,54c0,0-4.4-1.5-4.5-1.7c-0.1-0.1-2.1-4.2-2.1-4.2l1-3.8L48.5,42.7z"/>
<path class="st1" d="M29.5,15.4c0.1-0.2,8.8-10.1,8.8-10.1L50,1l13.3,2.1l5.6,14.4L68.5,19l-7,9.5l-9.7,3.9L35.9,32l-2.1-2.7
	L29.5,15.4z"/>
<g>
	<path class="st2" d="M70,34.9L70,34.9c-0.1-1.9-1.7-3.5-3.7-3.5h-9.3l3.2-1.2c0.7-0.3,1.4-0.7,1.9-1.3l6.6-7.8
		c1.1-1.3,1.4-3,0.8-4.6L65.1,4.5c-0.6-1.6-2-2.7-3.7-2.9L51.2,0.1c-0.8-0.1-1.6,0-2.3,0.3l-10.7,4c-0.7,0.3-1.4,0.7-1.9,1.3
		l-6.6,7.8c-0.1,0.1-0.1,0.2-0.2,0.2c-0.5-0.7-1.4-1.2-2.4-1.2H14.1c-1.2,0-2.4,0.6-3.1,1.7l-2.4,3.7C8.4,18.4,8.5,19,9,19.3
		c0.5,0.3,1.1,0.2,1.4-0.3l2.4-3.7c0.3-0.5,0.8-0.8,1.4-0.8h7.2V24c0,0.5-0.4,1-1,1H6.4l1.5-2.2c0.3-0.5,0.2-1.1-0.3-1.4
		c-0.5-0.3-1.1-0.2-1.4,0.3l-1.6,2.5c-0.7,1-1,2.2-1,3.4v2.1c-2,0.1-3.6,1.8-3.6,3.8c0,2,1.6,3.7,3.6,3.8v1.9c0,1.1,0.5,2.1,1.4,2.8
		l3.6,2.8v1.9c0,0.9,0.7,1.7,1.7,1.7h1c0-0.7,0-1.3,0-2h-0.6v-2.6c0-0.5,0.1-0.9,0.4-1.4l2.4-4.1c0.3-0.5,0.9-0.8,1.4-0.8h9.7
		c0.6,0,1.1,0.3,1.4,0.8l2.4,4.1c0.2,0.4,0.4,0.9,0.4,1.4v2.6H28c0,0.2,0,0.5,0,0.7c0,0.4-0.1,0.8-0.1,1.3h0.9
		c0.9,0,1.7-0.7,1.7-1.7v-0.3h12.2v0.3c0,0.9,0.7,1.7,1.7,1.7h0.9c0-0.3,0-0.6,0-0.9c0-0.4,0-0.7,0-1.1h-0.6v-2.6
		c0-0.5,0.1-0.9,0.4-1.4l2.4-4.1c0.3-0.5,0.9-0.8,1.4-0.8h9.7c0.6,0,1.1,0.3,1.4,0.8l2.4,4.1c0.2,0.4,0.4,0.9,0.4,1.4v2.6h-0.7
		c0,0.4,0,0.8,0,1.2c0,0.3,0,0.5,0,0.8l1,0c0.9,0,1.7-0.7,1.7-1.7v-0.3h2.9c1.3,0,2.3-1,2.3-2.3L70,34.9C70,34.9,70,34.9,70,34.9z
		 M3.6,35.4C2.7,35.2,2,34.5,2,33.5v0c0-0.9,0.7-1.7,1.6-1.8V35.4z M9.1,41.5c-0.2,0.3-0.3,0.7-0.4,1l-2.5-2
		c-0.4-0.3-0.7-0.9-0.6-1.4h4.9L9.1,41.5z M28.1,37.1h-0.7c-0.7-1-1.8-1.6-3-1.6h-9.7c-1.2,0-2.3,0.6-3,1.6H5.6v-9.5
		c0-0.2,0-0.4,0-0.6h14.7c1.7,0,3-1.3,3-3v-9.5h3.7c0.6,0,1,0.4,1,1V37.1z M61.1,3.5c0.9,0.1,1.8,0.8,2.1,1.7l4.6,11.9
		c0.3,0.9,0.2,1.9-0.4,2.6L61.1,27L51.6,2.1L61.1,3.5z M31.2,14.8L31.2,14.8l6.5-7.7l1.5,4c0.2,0.5,0.8,0.8,1.3,0.6
		c0.5-0.2,0.8-0.8,0.6-1.3L39.4,6l10.1-3.8l10,26.2l-8,3h-2.4l-6.5-16.9c-0.2-0.5-0.8-0.8-1.3-0.6c-0.5,0.2-0.8,0.8-0.6,1.3L47,31.4
		h-6.8L37.4,31c-0.9-0.1-1.7-0.8-2.1-1.7l-4.6-11.9C30.4,16.5,30.6,15.5,31.2,14.8z M30.1,21.3l1.9,4.9l-1.9,0.7V21.3z M32.7,28
		l0.8,2c0.2,0.5,0.5,1,0.8,1.4h-4.2V29h0L32.7,28z M43.4,41.5c-0.4,0.7-0.6,1.5-0.6,2.4v0.6H30.6v-0.6c0-0.8-0.2-1.6-0.6-2.4
		l-1.4-2.3h16.2L43.4,41.5z M68,44.1c0,0.2-0.1,0.3-0.3,0.3h-2.9v-0.6c0-0.8-0.2-1.6-0.6-2.4l-1.4-2.3H68V44.1z M61.6,37.1
		c-0.7-1-1.8-1.6-3-1.6h-9.7c-1.2,0-2.3,0.6-3,1.6H30.1v-3.7h36.2c0.9,0,1.7,0.7,1.7,1.7l0,2.1H61.6z"/>
	<path class="st3" d="M27.3,47.1c0-0.2-0.1-0.7-0.1-0.7c-0.4-3.9-3.7-6.9-7.7-6.9c-4,0-7.2,2.9-7.7,6.7c0,0.7,0,1.4,0,2.2h0
		c0.6,3.7,3.8,6.6,7.7,6.6c3.9,0,7.1-2.9,7.7-6.6C27.2,48.4,27.3,47.6,27.3,47.1z M19.5,53c-3.2,0-5.8-2.6-5.8-5.8
		c0-3.2,2.6-5.8,5.8-5.8c3.2,0,5.8,2.6,5.8,5.8C25.3,50.4,22.7,53,19.5,53z"/>
	<path class="st3" d="M19.5,43.6c-2.1,0-3.7,1.7-3.7,3.7c0,2,1.7,3.7,3.7,3.7s3.7-1.7,3.7-3.7C23.3,45.2,21.6,43.6,19.5,43.6z
		 M19.5,49c-0.9,0-1.7-0.8-1.7-1.7s0.8-1.7,1.7-1.7s1.7,0.8,1.7,1.7C21.2,48.2,20.5,49,19.5,49z"/>
	<path class="st4" d="M16.5,31.3h2.9c0.6,0,1-0.4,1-1c0-0.5-0.4-1-1-1h-2.9c-0.6,0-1,0.4-1,1C15.5,30.8,15.9,31.3,16.5,31.3z"/>
</g>
<path class="st3" d="M61.6,47.1c0-0.2-0.1-0.7-0.1-0.7c-0.4-3.9-3.7-6.9-7.7-6.9c-4,0-7.2,2.9-7.7,6.7c0,0.7,0,1.4,0,2.2h0
	c0.6,3.7,3.8,6.6,7.7,6.6c3.9,0,7.1-2.9,7.7-6.6C61.5,48.4,61.6,47.6,61.6,47.1z M53.8,53c-3.2,0-5.8-2.6-5.8-5.8
	c0-3.2,2.6-5.8,5.8-5.8c3.2,0,5.8,2.6,5.8,5.8C59.5,50.4,57,53,53.8,53z"/>
<path class="st3" d="M53.8,43.6c-2.1,0-3.7,1.7-3.7,3.7c0,2,1.7,3.7,3.7,3.7c2.1,0,3.7-1.7,3.7-3.7C57.5,45.2,55.8,43.6,53.8,43.6z
	 M53.8,49c-0.9,0-1.7-0.8-1.7-1.7s0.8-1.7,1.7-1.7c0.9,0,1.7,0.8,1.7,1.7C55.5,48.2,54.7,49,53.8,49z"/>
</svg>
