<?xml version="1.0" encoding="utf-8"?>
<!-- Generator: Adobe Illustrator 21.1.0, SVG Export Plug-In . SVG Version: 6.00 Build 0)  -->
<svg version="1.1" id="_x31_px" xmlns="http://www.w3.org/2000/svg" xmlns:xlink="http://www.w3.org/1999/xlink" x="0px" y="0px"
	 viewBox="0 0 512 512" style="enable-background:new 0 0 512 512;" xml:space="preserve">
<style type="text/css">
	.st0{fill:#536A90;}
	.st1{fill:#F78428;}
</style>
<path class="st0" d="M508.9,451.2l-42.7-42.7c-4.2-4.2-10.9-4.2-15.1,0s-4.2,10.9,0,15.1l24.4,24.4H64V36.4l24.4,24.5
	C90.5,63,93.3,64,96,64s5.5-1,7.6-3.1c4.2-4.2,4.2-10.9,0-15.1L60.9,3.1C56.7-1,50-1,45.8,3.1L3.1,45.8C-1,50-1,56.7,3.1,60.9
	c4.2,4.2,10.9,4.2,15.1,0l24.4-24.5V448h-32C4.8,448,0,452.8,0,458.7s4.8,10.7,10.7,10.7h32v32c0,5.9,4.8,10.7,10.7,10.7
	S64,507.2,64,501.3v-32h411.6l-24.5,24.5c-4.2,4.2-4.2,10.9,0,15.1c2.1,2.1,4.8,3.1,7.6,3.1s5.5-1,7.5-3.1l42.7-42.7
	C513,462.1,513,455.3,508.9,451.2z"/>
<path class="st1" d="M426.6,148.4c0-0.1,0-0.2,0-0.3c0-0.2-0.1-0.5-0.1-0.7c0-0.1,0-0.2-0.1-0.3c-0.1-0.3-0.1-0.6-0.2-0.8
	c0,0,0,0,0-0.1c-0.1-0.3-0.2-0.6-0.3-0.9c0-0.1-0.1-0.1-0.1-0.2c-0.1-0.2-0.2-0.5-0.4-0.7c0,0,0-0.1-0.1-0.1c-1-1.8-2.4-3.2-4.2-4.2
	c0,0-0.1,0-0.1,0c-0.2-0.1-0.5-0.2-0.7-0.4c-0.1,0-0.2-0.1-0.2-0.1c-0.1,0-0.1-0.1-0.2-0.1L281.2,86c-2.5-0.9-5.2-0.9-7.7,0
	l-138.7,53.3c-2.4,0.9-4.3,2.7-5.5,4.8c0,0,0,0.1,0,0.1c-0.1,0.3-0.3,0.5-0.4,0.8c0,0.1,0,0.1-0.1,0.2c-0.1,0.3-0.2,0.6-0.3,0.9
	c0,0,0,0,0,0c-0.1,0.3-0.2,0.6-0.2,0.9c0,0.1,0,0.2-0.1,0.3c0,0.2-0.1,0.5-0.1,0.7c0,0.1,0,0.2,0,0.3c0,0.3,0,0.6,0,1V320
	c0,4.4,2.7,8.4,6.8,10l138.7,53.3c0.2,0.1,0.4,0.1,0.5,0.2c0.1,0,0.1,0,0.2,0.1c0.2,0.1,0.5,0.1,0.7,0.2c0.1,0,0.2,0.1,0.3,0.1
	c0.2,0,0.5,0.1,0.7,0.1c0.1,0,0.2,0,0.3,0c0.3,0,0.7,0.1,1,0.1s0.7,0,1-0.1c0.1,0,0.2,0,0.3,0c0.2,0,0.5-0.1,0.7-0.1
	c0.1,0,0.2,0,0.3-0.1c0.2-0.1,0.5-0.1,0.7-0.2c0.1,0,0.1,0,0.2-0.1c0.2-0.1,0.4-0.1,0.5-0.2L419.8,330c4.1-1.6,6.8-5.5,6.8-10V149.3
	C426.7,149,426.6,148.7,426.6,148.4z M277.3,107.4l108.9,41.9l-108.9,41.9l-108.9-41.9L277.3,107.4z M149.3,164.9L266.7,210v147.8
	l-117.3-45.1V164.9z M288,357.8V210l117.3-45.1v147.8L288,357.8z"/>
</svg>
