<?xml version="1.0" encoding="utf-8"?>
<!-- Generator: Adobe Illustrator 21.1.0, SVG Export Plug-In . SVG Version: 6.00 Build 0)  -->
<svg version="1.1" id="Layer_1" xmlns="http://www.w3.org/2000/svg" xmlns:xlink="http://www.w3.org/1999/xlink" x="0px" y="0px"
	 viewBox="0 0 512 512" style="enable-background:new 0 0 512 512;" xml:space="preserve">
<style type="text/css">
	.st0{fill:#536B90;}
	.st1{fill:#F78428;}
</style>
<g>
	<g>
		<circle class="st0" cx="116.3" cy="462.3" r="12"/>
	</g>
</g>
<g>
	<g>
		<path class="st0" d="M462.6,381.6c2.4-3.9,3.8-8.4,3.8-13.3V364c0-13.9-11.3-25.2-25.2-25.2H363c-1.7,0-3.4,0.2-5,0.5l14.1-70.8
			c2.1-10.4,2.3-20.6,0.7-30.3c-2.7-16.2-11.2-35.5-36.9-35.5c-3.7,0-6.8,2.6-7.4,6.3l-4.9,29c-1.9,11.5-4.6,22.4-7.9,32.4
			c-9.2,27.9-20.8,42.2-41.4,51c-9.9,4.2-17.9,7.8-21.1,9.3h-31v-6c0-4.1-3.4-7.5-7.5-7.5h-50.9V309c0-4.1-3.4-7.5-7.5-7.5H29.9
			c-4.1,0-7.5,3.4-7.5,7.5v44.6c0,4.1,3.4,7.5,7.5,7.5c4.2,0,7.5-3.4,7.5-7.5v-37.1h111.3v8.1v168.7H37.4V378.7
			c0-4.1-3.4-7.5-7.5-7.5s-7.5,3.4-7.5,7.5v122.2c0,4.1,3.4,7.5,7.5,7.5h126.3c4.1,0,7.5-3.4,7.5-7.5v-8.1h50.9
			c4.1,0,7.5-3.4,7.5-7.5v-3.5h30l16.1,13.1c13.6,11,30.6,17,48.1,17H362c0.1,0,0.1,0,0.2,0c1,0.1,1.9,0.2,2.9,0.2h53.7
			c15,0,27.3-12.2,27.3-27.3c0-4.5-1.1-8.8-3.1-12.5c13.2-1.9,23.4-13.3,23.4-27c0-5.6-1.7-10.7-4.5-15c8.1-4.2,13.7-12.6,13.7-22.4
			v-4.2C475.6,394.1,470.3,385.9,462.6,381.6z M363,353.9h78.3v0c5.6,0,10.1,4.6,10.1,10.1v4.2c0,5.6-4.6,10.1-10.1,10.1H363
			c-5.6,0-10.1-4.6-10.1-10.1v-4c0.5-1.8,0.9-3.5,1.3-5.1C355.9,356,359.2,353.9,363,353.9z M337.8,484.7c0,4.3,1,8.5,2.8,12.1
			h-24.4c-14,0-27.7-4.9-38.6-13.7l-18.2-14.7c-1.3-1.1-3-1.7-4.7-1.7h-32.6v-21.5c0-4.1-3.4-7.5-7.5-7.5s-7.5,3.4-7.5,7.5v29.1v3.5
			h-43.3V332.2h43.3v6v82v0c0,4.1,3.4,7.5,7.5,7.5c4.1,0,7.5-3.4,7.5-7.5v0v-74.5h32.6c1.1,0,2.2-0.2,3.1-0.7
			c0.1,0,9.6-4.4,22.3-9.8c24.8-10.6,39.2-28,49.8-60.1c3.6-10.8,6.4-22.4,8.5-34.6l3.8-22.1c8.8,2.1,13.7,9,15.8,22.3
			c1.3,8,1.1,16.4-0.6,25l-16,80.7c0,0.1-0.1,0.3-0.1,0.5c0,0.1-0.4,3-1.4,7.4c-1,2.3-1.7,4.9-1.9,7.5c-6,21.2-21.3,57.7-56.3,57.7
			c-4.1,0-7.5,3.4-7.5,7.5s3.4,7.5,7.5,7.5c23.3,0,42.6-12,56.5-34.8c-0.2,1.3-0.3,2.6-0.3,4v4.2c0,7.2,3,13.7,7.9,18.3
			c-4.9,4.9-7.9,11.7-7.9,19.2c0,7.8,3.3,14.8,8.5,19.8C341.1,469.9,337.8,477,337.8,484.7z M418.8,497h-53.7
			c-6.8,0-12.3-5.5-12.3-12.3s5.5-12.3,12.3-12.3h53.7c6.8,0,12.3,5.5,12.3,12.3C431,491.5,425.5,497,418.8,497z M439.1,457.4h-20.4
			h-53.7c-6.8,0-12.3-5.5-12.3-12.3s5.5-12.3,12.3-12.3h74c6.8,0,12.3,5.5,12.3,12.3C451.4,452,445.9,457.4,439.1,457.4z
			 M460.5,407.8c0,5.6-4.5,10.1-10.1,10.1h-11.2h-74H363c-5.6,0-10.1-4.6-10.1-10.1v-4.2c0-5.6,4.6-10.1,10.1-10.1h78.3h9.1
			c5.6,0,10.1,4.6,10.1,10.1L460.5,407.8L460.5,407.8z"/>
	</g>
</g>
<g>
	<g>
		<path class="st1" d="M173.1,108.4c-1.7-5.1-6-8.8-11.3-9.6l-34.2-5l-15.3-31c-2.4-4.8-7.2-7.8-12.6-7.8c-5.4,0-10.2,3-12.6,7.8
			l-15.3,31l-34.2,5c-5.3,0.8-9.7,4.4-11.3,9.6c-1.7,5.1-0.3,10.6,3.6,14.4l24.7,24.1l-5.8,34c-0.9,5.3,1.2,10.6,5.6,13.7
			c2.5,1.8,5.3,2.7,8.2,2.7c2.2,0,4.5-0.5,6.6-1.6l30.6-16.1l30.6,16.1c4.8,2.5,10.4,2.1,14.8-1.1c4.4-3.2,6.5-8.4,5.6-13.7l-5.8-34
			l24.7-24.1C173.4,119,174.8,113.5,173.1,108.4z M134,136.5c-3.3,3.2-4.8,7.9-4,12.4l5.6,32.6l-29.3-15.4c-4.1-2.2-9-2.2-13.1,0
			l-29.3,15.4l5.6-32.6c0.8-4.6-0.7-9.2-4-12.4l-23.7-23.1l32.7-4.8c4.6-0.7,8.5-3.5,10.6-7.7l14.6-29.6l14.6,29.6
			c2,4.2,6,7,10.6,7.7l32.7,4.8L134,136.5z"/>
	</g>
</g>
<g>
	<g>
		<path class="st1" d="M331.2,53.3c-1.7-5.1-6-8.8-11.3-9.6l-34.2-5l-15.3-31C268,3,263.2,0,257.8,0s-10.2,3-12.6,7.8l-15.3,31
			l-34.2,5c-5.3,0.8-9.7,4.4-11.3,9.6c-1.7,5.1-0.3,10.6,3.6,14.4l24.7,24.1l-5.8,34c-0.9,5.3,1.2,10.6,5.6,13.7
			c4.4,3.2,10,3.6,14.8,1.1l30.6-16.1l30.6,16.1c2.1,1.1,4.3,1.6,6.6,1.6c2.9,0,5.8-0.9,8.2-2.7c4.4-3.2,6.5-8.4,5.6-13.7l-5.8-34
			l24.7-24.1C331.5,64,332.8,58.4,331.2,53.3z M292,81.4c-3.3,3.2-4.8,7.9-4,12.4l5.6,32.6L264.3,111c-4.1-2.2-9-2.2-13.1,0
			L222,126.4l5.6-32.6c0.8-4.6-0.7-9.2-4-12.4l-23.7-23.1l32.7-4.8c4.6-0.7,8.5-3.5,10.6-7.7l14.6-29.6l14.6,29.6
			c2,4.1,6,7,10.6,7.7l32.7,4.8L292,81.4z"/>
	</g>
</g>
<g>
	<g>
		<path class="st1" d="M488.9,108.4c-1.7-5.1-6-8.8-11.3-9.6l-34.2-5l-15.3-31c-2.4-4.8-7.2-7.8-12.6-7.8s-10.2,3-12.6,7.8l-15.3,31
			l-34.2,5c-5.3,0.8-9.7,4.4-11.3,9.6c-1.7,5.1-0.3,10.6,3.6,14.4l24.7,24.1l-5.8,34c-0.9,5.3,1.2,10.6,5.6,13.7
			c4.4,3.2,10,3.6,14.8,1.1l30.6-16.1l30.6,16.1c2.1,1.1,4.3,1.6,6.6,1.6c2.9,0,5.8-0.9,8.2-2.7c4.4-3.2,6.5-8.4,5.6-13.7l-5.8-34
			l24.7-24.1C489.2,119,490.6,113.5,488.9,108.4z M449.8,136.5c-3.3,3.2-4.8,7.9-4,12.4l5.6,32.6L422,166.1c-2-1.1-4.3-1.6-6.5-1.6
			s-4.5,0.5-6.5,1.6l-29.3,15.4l5.6-32.6c0.8-4.6-0.7-9.2-4-12.4l-23.7-23.1l32.7-4.8c4.6-0.7,8.5-3.5,10.6-7.7l14.6-29.6l14.6,29.6
			c2,4.1,6,7,10.6,7.7l32.7,4.8L449.8,136.5z"/>
	</g>
</g>
</svg>
