<?xml version="1.0" encoding="utf-8"?>
<!-- Generator: Adobe Illustrator 21.1.0, SVG Export Plug-In . SVG Version: 6.00 Build 0)  -->
<svg version="1.1" id="Capa_1" xmlns="http://www.w3.org/2000/svg" xmlns:xlink="http://www.w3.org/1999/xlink" x="0px" y="0px"
	 viewBox="0 0 60 74.5" style="enable-background:new 0 0 60 74.5;" xml:space="preserve">
<style type="text/css">
	.st0{fill:#F9D7BE;stroke:#FFFFFF;stroke-width:0.1437;stroke-miterlimit:10;}
	.st1{fill:#F9D6BC;}
	.st2{fill:#50688E;}
	.st3{fill:#F78A33;}
	.st4{fill:#F78936;}
</style>
<rect x="33.3" y="39.6" class="st0" width="5.3" height="10.6"/>
<rect x="20.5" y="11" class="st1" width="4.4" height="4.1"/>
<rect x="35.3" y="21.9" class="st1" width="4" height="4.3"/>
<g id="XMLID_979_">
	<g id="XMLID_644_">
		<path id="XMLID_953_" class="st2" d="M59.7,42c-0.6-1.4-1.9-2.3-3.5-2.3h-2.7V2.3c0-0.8-0.6-1.4-1.4-1.4H36.4
			c-0.8,0-1.4,0.6-1.4,1.4s0.6,1.4,1.4,1.4h14.3v37.4c0,0.8,0.6,1.4,1.4,1.4h4.1c0.6,0,0.8,0.4,0.9,0.6c0.1,0.2,0.2,0.6-0.2,1
			L30.7,70.4c-0.4,0.4-0.9,0.4-1.3,0L3.1,44.1c-0.4-0.4-0.3-0.8-0.2-1C3,43,3.2,42.6,3.8,42.6h4.1c0.8,0,1.4-0.6,1.4-1.4V3.7h14.3
			c0.8,0,1.4-0.6,1.4-1.4s-0.6-1.4-1.4-1.4H7.9c-0.8,0-1.4,0.6-1.4,1.4v37.4H3.8c-1.5,0-2.9,0.9-3.5,2.3c-0.6,1.4-0.3,3,0.8,4.1
			l26.2,26.2c0.7,0.7,1.7,1.1,2.7,1.1c1,0,1.9-0.4,2.7-1.1l26.2-26.2C60,45,60.3,43.5,59.7,42L59.7,42z"/>
		<path id="XMLID_954_" class="st3" d="M25.5,27.9c0.2,0.1,0.4,0.1,0.6,0.1c0.5,0,1-0.3,1.3-0.8l7.8-16.1c0.3-0.7,0-1.6-0.7-1.9
			c-0.7-0.3-1.6,0-1.9,0.7L24.8,26C24.5,26.7,24.8,27.5,25.5,27.9L25.5,27.9z"/>
		<path id="XMLID_957_" class="st3" d="M37.3,19.5c-2.5,0-4.5,2-4.5,4.5s2,4.5,4.5,4.5c2.5,0,4.5-2,4.5-4.5S39.8,19.5,37.3,19.5z
			 M37.3,25.7c-0.9,0-1.7-0.8-1.7-1.7c0-0.9,0.8-1.7,1.7-1.7c0.9,0,1.7,0.8,1.7,1.7C39,25,38.2,25.7,37.3,25.7z"/>
		<path id="XMLID_960_" class="st3" d="M18.2,13.1c0,2.5,2,4.5,4.5,4.5s4.5-2,4.5-4.5s-2-4.5-4.5-4.5S18.2,10.6,18.2,13.1z
			 M24.4,13.1c0,0.9-0.8,1.7-1.7,1.7c-0.9,0-1.7-0.8-1.7-1.7c0-0.9,0.8-1.7,1.7-1.7C23.6,11.4,24.4,12.1,24.4,13.1z"/>
		<path id="XMLID_1741_" class="st3" d="M30,3.7c0.4,0,0.7-0.2,1-0.4c0.3-0.3,0.4-0.6,0.4-1s-0.2-0.7-0.4-1s-0.6-0.4-1-0.4
			S29.3,1,29,1.3c-0.3,0.3-0.4,0.6-0.4,1s0.2,0.7,0.4,1C29.3,3.6,29.6,3.7,30,3.7z"/>
	</g>
</g>
<g>
	<path class="st4" d="M29.4,52.4H19v-2.2l3.7-3.8c1.1-1.1,1.8-1.9,2.2-2.3c0.3-0.4,0.6-0.8,0.7-1.2c0.1-0.4,0.2-0.8,0.2-1.2
		c0-0.6-0.2-1-0.5-1.3C25,40.1,24.6,40,24,40c-0.6,0-1.1,0.1-1.7,0.4c-0.5,0.3-1.1,0.6-1.7,1.1l-1.7-2c0.7-0.6,1.3-1.1,1.8-1.3
		c0.5-0.3,1-0.5,1.6-0.6c0.6-0.1,1.2-0.2,1.9-0.2c0.9,0,1.7,0.2,2.5,0.5c0.7,0.3,1.3,0.8,1.7,1.4c0.4,0.6,0.6,1.3,0.6,2.1
		c0,0.7-0.1,1.3-0.4,1.9c-0.2,0.6-0.6,1.2-1.1,1.8c-0.5,0.6-1.4,1.5-2.7,2.7l-1.9,1.8v0.1h6.5V52.4z"/>
	<path class="st4" d="M41.1,45c0,2.6-0.4,4.5-1.3,5.7c-0.8,1.2-2.2,1.9-3.9,1.9c-1.7,0-3-0.6-3.9-1.9c-0.9-1.3-1.3-3.2-1.3-5.7
		c0-2.6,0.4-4.5,1.3-5.8c0.8-1.2,2.1-1.9,3.9-1.9c1.7,0,3,0.6,3.9,1.9C40.7,40.6,41.1,42.5,41.1,45z M33.9,45c0,1.8,0.2,3.1,0.5,3.9
		c0.3,0.8,0.8,1.2,1.6,1.2c0.7,0,1.3-0.4,1.6-1.2c0.3-0.8,0.5-2.1,0.5-3.9c0-1.8-0.2-3.1-0.5-3.9c-0.3-0.8-0.9-1.2-1.6-1.2
		c-0.7,0-1.3,0.4-1.6,1.2C34,41.9,33.9,43.2,33.9,45z"/>
</g>
</svg>
