<?xml version="1.0" encoding="utf-8"?>
<!-- Generator: Adobe Illustrator 21.1.0, SVG Export Plug-In . SVG Version: 6.00 Build 0)  -->
<svg version="1.1" id="Capa_1" xmlns="http://www.w3.org/2000/svg" xmlns:xlink="http://www.w3.org/1999/xlink" x="0px" y="0px"
	 viewBox="0 0 70 70" style="enable-background:new 0 0 70 70;" xml:space="preserve">
<style type="text/css">
	.st0{fill:#F9D7BE;}
	.st1{fill:#C7D8F3;}
	.st2{fill:#50688E;}
	.st3{fill:#F8984C;}
</style>
<path class="st0" d="M33.1,47.1l0.5,5l2.4,5.1l3.6,3.5l6,2l6.2-0.2l6.1-3.5l2.4-3.6c0,0,1.3-2.7,1.4-2.8s0.6-3.9,0.6-3.9L60,49
	l-2.9-0.2l-2.8-0.7l-1.9-1.7c0,0-1.9-1-2.1-1c-0.2,0-2.1,0.1-2.6,0.4c-0.5,0.3-2.4,2-2.5,2.2c0,0.2-1.9,1.2-1.9,1.2l-3.1-0.5
	l-3.2-1.6l-2.3-1.4l-2,0.2L33.1,47.1z"/>
<g id="Layer_2">
	<path class="st1" d="M17.4,9.6l-4.6,2.3l0.2,5.2l4.5,2.3l4.6-2.2c0,0,4.1,2.2,4.2,2.2c0.1,0,4.9-2.3,4.9-2.3l0.2-5.1l-4.6-3
		c0,0-4.5,2.5-4.5,2.5s-4.3-2.3-4.3-2.3l-1.2-0.2"/>
	<path class="st1" d="M49.4,10.1V3.8l0.9-2.2l2.6-0.4L56,2.7c0,0,0.5,2.9,0.5,3.1s-0.4,4.7-0.4,4.7h-6.7"/>
</g>
<g>
	<g>
		<path class="st2" d="M25.1,57.2l-20.5,0c-1.3,0-2.3-1-2.3-2.3v-1.2l22.8,0c0-0.7,0-1.5,0-2.2c0,0,0-0.1,0-0.1L7,51.3V4.7
			c0-1.3,1-2.3,2.3-2.3h39.1c-0.4,0.7-0.6,1.5-0.6,2.3v9l2.3,0v-1.9H56c0.6,0,1.2-0.5,1.2-1.2V4.7c0-2.6-2.1-4.7-4.7-4.7H9.3
			C6.8,0,4.7,2.1,4.7,4.7v46.7H1.2c-0.6,0-1.2,0.5-1.2,1.2v2.3c0,2.6,2.1,4.7,4.7,4.7l20.5,0C25.1,58.7,25.1,57.9,25.1,57.2z
			 M50.2,4.7c0-1.3,1-2.3,2.3-2.3c1.3,0,2.3,1,2.3,2.3v4.7h-4.7V4.7z"/>
		<path class="st3" d="M66.7,36.2c-3-4.8-7.6-8.2-13-9.7v-4.3c1.9,0,3.5-1.6,3.5-3.5s-1.6-3.5-3.5-3.5h-3.5c-2.3,0,0,0-2.3,0H42
			c-1.9,0-3.5,1.6-3.5,3.5s1.6,3.5,3.5,3.5v4.3c-11,2.9-17.9,13.7-16,24.9l0,0c0,0,0,0,0,0c0.2,1.2,0.1,0.7,0.5,2.3l0,0
			c0.3,1.2,0.8,2.4,1.3,3.5l0,0c0.1,0.3,1.3,2.4,1.3,2.3l0,0c6.4,10.4,20.1,13.6,30.5,7.2S73.1,46.6,66.7,36.2z M40.8,18.7
			c0-0.6,0.5-1.2,1.2-1.2h11.7c0.6,0,1.2,0.5,1.2,1.2c0,0.6-0.5,1.2-1.2,1.2H42C41.4,19.8,40.8,19.3,40.8,18.7z M47.8,67.7
			C36.9,67.7,28,58.8,28,47.9c0-9.3,6.4-17.3,15.4-19.3c0.5-0.1,0.9-0.6,0.9-1.1v-5.2h7v5.2c0,0.5,0.4,1,0.9,1.1
			c10.7,2.4,17.4,13.1,14.9,23.7C65.1,61.3,57.1,67.7,47.8,67.7z"/>
	</g>
</g>
<g>
	<g>
		<path class="st3" d="M40.3,33.3c-3.4,1.8-6.1,4.7-7.5,8.2l2.2,0.9c1.3-3,3.6-5.5,6.5-7L40.3,33.3z"/>
	</g>
</g>
<g>
	<g>
		<path class="st3" d="M64.1,46.6c0-0.6-0.6-1.1-1.2-1.1c-0.3,0-0.5,0.1-0.7,0.3l-0.9,0.9c-1.6,1.6-4.2,1.6-5.8,0l-0.7-0.7
			c-2.5-2.5-6.6-2.5-9.1,0l-0.7,0.7c-1.6,1.6-4.2,1.6-5.8,0c-1.8-1.8-4.4-2.3-6.8-1.5c-0.4,0.2-0.7,0.5-0.8,1c0,0.5-0.1,1-0.1,1.5
			c0,9,7.3,16.3,16.3,16.3s16.3-7.3,16.3-16.3C64.2,47.5,64.1,47.1,64.1,46.6z M47.8,61.8c-7.7,0-14-6.3-14-14c0-0.2,0-0.3,0-0.5
			c1.3-0.2,2.7,0.2,3.6,1.1c2.5,2.5,6.6,2.5,9.1,0l0.7-0.7c1.6-1.6,4.2-1.6,5.8,0l0.7,0.7c2.1,2.1,5.4,2.5,8,0.9
			C61,56.4,55,61.8,47.8,61.8z"/>
	</g>
</g>
<g>
	<g>
		<path class="st3" d="M45.3,31.7c-0.9,0.1-1.7,0.3-2.5,0.6l0.7,2.2c0.7-0.2,1.4-0.4,2.2-0.5L45.3,31.7z"/>
	</g>
</g>
<g>
	<g>
		<rect x="51.3" y="50.2" class="st3" width="2.3" height="2.3"/>
	</g>
</g>
<g>
	<g>
		<rect x="39.7" y="53.7" class="st3" width="2.3" height="2.3"/>
	</g>
</g>
<g>
	<g>
		<rect x="49" y="56" class="st3" width="2.3" height="2.3"/>
	</g>
</g>
<g>
	<g>
		<path class="st2" d="M31.8,10.5L28,8.6V5.8h-2.3v2.8l-3.5,1.7l-3.5-1.7V5.8h-2.3v2.8l-4,2c-0.4,0.2-0.6,0.6-0.6,1v4.7H9.3v2.3h3.2
			l3.8,1.9v2.8h2.3v-2.8l3.5-1.7l3.5,1.7v2.8H28v-2.8l4-2c0.4-0.2,0.6-0.6,0.6-1v-4.7H35v-2.3C35,10.5,31.8,10.5,31.8,10.5z
			 M21,16.8l-3.5,1.7L14,16.8v-4.4l3.5-1.7l3.5,1.7V16.8z M30.3,16.8l-3.5,1.7l-3.5-1.7v-4.4l3.5-1.7l3.5,1.7V16.8z"/>
	</g>
</g>
<g>
	<g>
		<rect x="10.5" y="31.5" class="st2" width="17.5" height="2.3"/>
	</g>
</g>
<g>
	<g>
		<rect x="10.5" y="36.2" class="st2" width="14" height="2.3"/>
	</g>
</g>
<g>
	<g>
		<rect x="10.5" y="40.8" class="st2" width="11.7" height="2.3"/>
	</g>
</g>
<g>
	<g>
		<rect x="17.5" y="26.8" class="st2" width="10.5" height="2.3"/>
	</g>
</g>
<g>
	<g>
		<rect x="37.3" y="8.2" class="st2" width="2.3" height="2.3"/>
	</g>
</g>
<g>
	<g>
		<rect x="12.8" y="26.8" class="st2" width="2.3" height="2.3"/>
	</g>
</g>
<g>
	<g>
		<rect x="42" y="8.2" class="st2" width="2.3" height="2.3"/>
	</g>
</g>
</svg>
