<?xml version="1.0" encoding="utf-8"?>
<!-- Generator: Adobe Illustrator 21.1.0, SVG Export Plug-In . SVG Version: 6.00 Build 0)  -->
<svg version="1.1" id="Layer_5" xmlns="http://www.w3.org/2000/svg" xmlns:xlink="http://www.w3.org/1999/xlink" x="0px" y="0px"
	 viewBox="0 0 72.1 71.6" style="enable-background:new 0 0 72.1 71.6;" xml:space="preserve">
<style type="text/css">
	.st0{fill:#C7D8F3;}
	.st1{fill:#F9D7BE;}
	.st2{fill:#50688E;}
	.st3{fill:#F78A33;}
</style>
<g id="Layer_3">
	<circle class="st0" cx="11.2" cy="52.3" r="5.1"/>
	<circle class="st0" cx="36.1" cy="52.1" r="5.1"/>
	<circle class="st0" cx="61.1" cy="51.9" r="5.1"/>
</g>
<g id="Layer_2">
	<path class="st1" d="M52.3,21l-0.8,2.3L48.7,24l-0.6,2.2l-2.7,1c0,0-0.8,2.7-0.8,2.8s-3,0.4-3,0.4l-0.5,3l-2.8,0.5l-2.2-1l-2.8,1
		l-1.7-1.2v-1.9l-2.1-0.1l-1.1-1.2l-0.1-1.9h-1.5l-2.1-2.2v-1.4l-1.8,0l-1.6-1.3l0.9-3.2l-1.9-2.5l-1-4.2l0.8-5.2L23.4,4
		c0,0,4.9-1.6,5-1.6c0.1,0,4.5,0.8,4.6,0.8s3,2.6,3,2.6L39.8,3l4.3-0.8L49,3.6l2.9,2.8l1.1,3.1c0,0,0.4,4.5,0.2,4.6
		c-0.1,0.1-1.8,3-1.8,3l-1.1,1.3L52.3,21z"/>
</g>
<path class="st2" d="M42.9,43h2.3v2.3h-2.3V43z"/>
<path class="st2" d="M47.4,43h2.3v2.3h-2.3V43z"/>
<path class="st2" d="M51.9,43h2.3v2.3h-2.3V43z"/>
<path class="st2" d="M18.1,43h2.3v2.3h-2.3V43z"/>
<path class="st2" d="M22.6,43h2.3v2.3h-2.3V43z"/>
<path class="st2" d="M27.1,43h2.3v2.3h-2.3V43z"/>
<g>
	<path class="st2" d="M65.1,57.4L65.1,57.4c1.6-1.2,2.7-3.2,2.7-5.4c0-3.3-2.4-6.1-5.6-6.7v-1.2c0-3.1-2.5-5.6-5.6-5.6H37.3v-2.4H35
		v2.4H15.8c-3.1,0-5.6,2.5-5.6,5.6v1.2c-3.2,0.5-5.6,3.3-5.6,6.7c0,2.2,1.1,4.1,2.7,5.4c-3.6,1.6-6.1,5.1-6.1,9.3v4.5h20.3v-4.5
		c0-4.1-2.5-7.7-6.1-9.3c1.6-1.2,2.7-3.2,2.7-5.4c0-3.3-2.4-6.1-5.6-6.7v-1.2c0-1.9,1.5-3.4,3.4-3.4H35v4.6
		c-3.2,0.5-5.6,3.3-5.6,6.7c0,2.2,1.1,4.1,2.7,5.4C28.5,59,26,62.6,26,66.7v4.5h20.3v-4.5c0-4.1-2.5-7.7-6.1-9.3
		c1.6-1.2,2.7-3.2,2.7-5.4c0-3.3-2.4-6.1-5.6-6.7v-4.6h19.2c1.9,0,3.4,1.5,3.4,3.4v1.2c-3.2,0.5-5.6,3.3-5.6,6.7
		c0,2.2,1.1,4.1,2.7,5.4c-3.6,1.6-6.1,5.1-6.1,9.3v4.5h20.3v-4.5C71.1,62.6,68.6,59,65.1,57.4z M19.2,66.7V69h-2.3v-4.5h-2.3V69H7.9
		v-4.5H5.6V69H3.4v-2.3c0-4.4,3.5-7.9,7.9-7.9S19.2,62.4,19.2,66.7z M15.8,52.1c0,2.5-2,4.5-4.5,4.5s-4.5-2-4.5-4.5
		c0-2.5,2-4.5,4.5-4.5S15.8,49.6,15.8,52.1z M44,66.7V69h-2.3v-4.5h-2.3V69h-6.8v-4.5h-2.3V69h-2.3v-2.3c0-4.4,3.5-7.9,7.9-7.9
		S44,62.4,44,66.7z M40.6,52.1c0,2.5-2,4.5-4.5,4.5s-4.5-2-4.5-4.5c0-2.5,2-4.5,4.5-4.5S40.6,49.6,40.6,52.1z M56.4,52.1
		c0-2.5,2-4.5,4.5-4.5c2.5,0,4.5,2,4.5,4.5c0,2.5-2,4.5-4.5,4.5C58.5,56.6,56.4,54.5,56.4,52.1z M68.9,69h-2.3v-4.5h-2.3V69h-6.8
		v-4.5h-2.3V69h-2.3v-2.3c0-4.4,3.5-7.9,7.9-7.9c4.4,0,7.9,3.5,7.9,7.9V69z"/>
	<path class="st3" d="M51.8,18.7c1.6-1.9,2.4-4.3,2.4-6.8c0-5.9-4.8-10.7-10.7-10.7c-2.8,0-5.4,1-7.4,2.9c-2-1.9-4.6-2.9-7.4-2.9
		c-5.9,0-10.7,4.8-10.7,10.7c0,2.8,1.1,5.4,3,7.4c-0.5,0.6-0.7,1.3-0.7,2.1c0,1.9,1.5,3.4,3.4,3.5c0.1,1.8,1.5,3.3,3.4,3.4
		c0.1,1.8,1.5,3.3,3.4,3.4c0.1,1.9,1.6,3.4,3.5,3.4c0.3,0,0.7-0.1,1-0.2c0,0,0.4-0.2,0.7-0.3c0.3-0.1,0.6-0.3,0.9-0.4
		c0.3-0.1,0.7,0.1,0.7,0.1c0.6,0.5,1.3,0.7,2.1,0.7c1.9,0,3.4-1.5,3.5-3.4c1.8-0.1,3.3-1.5,3.4-3.4c1.8-0.1,3.3-1.5,3.4-3.4
		c1.9-0.1,3.4-1.6,3.4-3.5c0-0.9-0.4-1.8-1-2.5L51.8,18.7z M37.5,6c1.6-1.6,3.7-2.5,6-2.5c4.7,0,8.5,3.8,8.5,8.5
		c0,1.9-0.6,3.7-1.7,5.1L45,11.9c0.3-0.3,0.7-0.5,1-0.8l-1.6-1.6c-1.2,1.2-2.9,1.9-4.7,1.9h-1.8L36,13.3c-0.2,0.2-0.5,0.3-0.8,0.3
		h-4.2c-0.3,0-0.5-0.2-0.5-0.5c0-0.1,0-0.2,0.1-0.3L37.5,6z M24.7,22.3c-0.2,0.2-0.6,0.4-0.9,0.4c-0.7,0-1.3-0.6-1.3-1.3
		c0-0.3,0.1-0.7,0.4-0.9l0.9-0.9c0.2-0.2,0.6-0.4,0.9-0.4c0.7,0,1.3,0.6,1.3,1.3c0,0.3-0.1,0.7-0.4,0.9L24.7,22.3z M28.1,25.7
		c-0.2,0.2-0.6,0.4-0.9,0.4c-0.7,0-1.3-0.6-1.3-1.3c0-0.3,0.1-0.7,0.4-0.9l0.9-0.9c0.2-0.2,0.6-0.4,0.9-0.4c0.7,0,1.3,0.6,1.3,1.3
		c0,0.3-0.1,0.7-0.4,0.9L28.1,25.7z M31.5,29.1c-0.2,0.2-0.6,0.4-0.9,0.4c-0.7,0-1.3-0.6-1.3-1.3c0-0.3,0.1-0.7,0.4-0.9l0.9-0.9
		c0.2-0.2,0.6-0.4,0.9-0.4c0.7,0,1.3,0.6,1.3,1.3c0,0.3-0.1,0.7-0.4,0.9L31.5,29.1z M35.8,31.6l-0.9,0.9c-0.2,0.2-0.6,0.4-0.9,0.4
		c-0.7,0-1.3-0.6-1.3-1.3c0-0.3,0.1-0.7,0.4-0.9l0.9-0.9c0.2-0.2,0.6-0.4,0.9-0.4c0.7,0,1.3,0.6,1.3,1.3
		C36.1,31.1,36,31.4,35.8,31.6z M49.5,22.7c-0.3,0-0.7-0.1-0.9-0.4L46,19.6l-1.6,1.6l2.7,2.7c0.2,0.2,0.4,0.6,0.4,0.9
		c0,0.7-0.6,1.3-1.3,1.3c-0.3,0-0.7-0.1-0.9-0.4L42.6,23L41,24.6l2.7,2.7c0.2,0.2,0.4,0.6,0.4,0.9c0,0.7-0.6,1.3-1.3,1.3
		c-0.3,0-0.7-0.1-0.9-0.4l-2.7-2.7L37.6,28l2.7,2.7c0.2,0.2,0.4,0.6,0.4,0.9c0,0.7-0.6,1.3-1.3,1.3c-0.3,0-0.7-0.1-0.9-0.4l-0.4-0.4
		c0.2-0.4,0.3-0.9,0.3-1.4c0-1.9-1.5-3.4-3.4-3.5c-0.1-1.8-1.5-3.3-3.4-3.4c-0.1-1.8-1.5-3.3-3.4-3.4c-0.1-1.9-1.6-3.4-3.5-3.4
		c-0.8,0-1.5,0.2-2.1,0.7c-1.5-1.6-2.3-3.6-2.3-5.8c0-4.7,3.8-8.5,8.5-8.5c2.2,0,4.2,0.8,5.7,2.3L29,11.3c-0.5,0.5-0.8,1.2-0.8,1.9
		c0,1.5,1.2,2.7,2.7,2.7h4.2c0.9,0,1.8-0.4,2.4-1l1.3-1.3h0.9c1.1,0,2.2-0.2,3.2-0.6l7.5,7.5c0.2,0.2,0.4,0.6,0.4,0.9
		C50.8,22.1,50.2,22.7,49.5,22.7z"/>
</g>
</svg>
