<?xml version="1.0" encoding="utf-8"?>
<!-- Generator: Adobe Illustrator 21.1.0, SVG Export Plug-In . SVG Version: 6.00 Build 0)  -->
<svg version="1.1" id="Capa_1" xmlns="http://www.w3.org/2000/svg" xmlns:xlink="http://www.w3.org/1999/xlink" x="0px" y="0px"
	 viewBox="0 0 102.5 90.2" style="enable-background:new 0 0 102.5 90.2;" xml:space="preserve">
<style type="text/css">
	.st0{fill:#F9D7BE;}
	.st1{fill:#C7D8F3;}
	.st2{fill:#51698E;}
	.st3{fill:#F78428;}
</style>
<rect x="42.3" y="75.6" class="st0" width="21.6" height="11.6"/>
<rect x="33.9" y="2.9" class="st0" width="23.2" height="8.6"/>
<rect x="79.7" y="20.3" class="st1" width="14.1" height="7.9"/>
<rect x="28.2" y="61.3" class="st1" width="50" height="5.9"/>
<path class="st2" d="M78.2,69.3c0.8,0,1.5-0.7,1.5-1.5v-7.1c0-0.8-0.7-1.5-1.5-1.5H28c-0.8,0-1.5,0.7-1.5,1.5v7.1
	c0,0.8,0.7,1.5,1.5,1.5H78.2z M60,66.4h-5.4v-4.2H60V66.4z M62.9,62.2h5.4v4.2h-5.4V62.2z M51.7,66.4h-5.4v-4.2h5.4V66.4z
	 M43.3,66.4h-5.4v-4.2h5.4V66.4z M76.8,66.4h-5.5v-4.2h5.5V66.4z M29.5,62.2H35v4.2h-5.5V62.2z"/>
<path class="st2" d="M7.7,70.7c0.6,0.5,1.5,0.4,2.1-0.2c1.4-1.6,3.4-2.6,5.5-2.6h0.2V65h-0.2c-3,0-5.8,1.3-7.8,3.6
	C7,69.2,7,70.1,7.7,70.7z"/>
<g>
	<path class="st3" d="M100,85.6L100,85.6l-4.2,0v0h-2.9v0h-4.8V55.4c0-1.5-1.2-2.6-2.6-2.6h-1.9v0h-7.2v0h-5.1
		c-0.8,0-1.5,0.7-1.5,1.5s0.7,1.5,1.5,1.5h13.8v29.9H65.4V75.4c0-0.8-0.7-1.5-1.5-1.5H42.3c-0.8,0-1.5,0.7-1.5,1.5v10.2H21.1
		c0-1.3,0-28.6,0-29.9h44.4c0.8,0,1.5-0.7,1.5-1.5s-0.7-1.5-1.5-1.5h-7V34.5h4.4l12.7,12.7v-4.1L64.5,32c-0.3-0.3-0.6-0.4-1-0.4h-5
		v-3.9h6.4l0,0c0.5,0,1,0.2,1.4,0.6l9.3,9.3v-4.1l-7.2-7.2c-0.9-0.9-2.1-1.4-3.5-1.4h-6.4V13.1h0.9c0.8,0,1.5-0.7,1.5-1.5
		c0-0.8-0.7-1.5-1.5-1.5h-0.9V4.4h0.9c0.8,0,1.5-0.7,1.5-1.5s-0.7-1.5-1.5-1.5c-3.7,0-23.6,0-27.7,0c-0.8,0-1.5,0.7-1.5,1.5
		s0.7,1.5,1.5,1.5h0.9v5.7h-0.9c-0.8,0-1.5,0.7-1.5,1.5s0.7,1.5,1.5,1.5h0.9v6.6c0,0.8,0.7,1.5,1.5,1.5s1.5-0.7,1.5-1.5v-6.6h20.1
		v39.7H35.4V25.5c0-0.8-0.7-1.5-1.5-1.5s-1.5,0.7-1.5,1.5v27.3h-5.6v-6.6h0.7c0.8,0,1.5-0.7,1.5-1.5c0-0.8-0.7-1.5-1.5-1.5h-0.7
		v-0.5c0-0.8-0.7-1.5-1.5-1.5c-0.8,0-1.5,0.7-1.5,1.5v0.5h-0.7c-0.8,0-1.5,0.7-1.5,1.5c0,0.8,0.7,1.5,1.5,1.5h0.7v6.6h-3.2
		c-1.5,0-2.6,1.2-2.6,2.6v7.9h0v12.4h0v9.8h-3.3V75.1c0-0.2,0.2-0.4,0.4-0.4h0.2v-2.9h-0.2c-1.8,0-3.3,1.5-3.3,3.3v10.5H8V75.1
		c0-0.8-0.7-1.5-1.5-1.5c-0.8,0-1.5,0.7-1.5,1.5v10.4H3c-0.8,0-1.5,0.7-1.5,1.5s0.7,1.5,1.5,1.5H100c0.8,0,1.5-0.7,1.5-1.5
		S100.8,85.6,100,85.6z M35.4,10.1V4.4h20.1v5.7H35.4z M62.5,85.6H43.8v-8.7h18.7V85.6z"/>
	<path class="st2" d="M77.8,27c-0.8,0-1.5,0.7-1.5,1.5s0.7,1.5,1.5,1.5h0.6v6.4l0,0v4.1l0,0v5.5l0,0v4h2.9c0-5.9,0-16.1,0-20.1h11.5
		v53h2.9v-53h0.6c0.8,0,1.5-0.7,1.5-1.5S97.2,27,96.4,27h-0.6v-5.2h0.6c0.8,0,1.5-0.7,1.5-1.5c0-0.8-0.7-1.5-1.5-1.5
		c-2.4,0-15.9,0-18.6,0c-0.8,0-1.5,0.7-1.5,1.5c0,0.8,0.7,1.5,1.5,1.5h0.6V27H77.8z M81.4,21.8h11.5V27H81.4V21.8z"/>
</g>
</svg>
