<?xml version="1.0" encoding="utf-8"?>
<!-- Generator: Adobe Illustrator 21.1.0, SVG Export Plug-In . SVG Version: 6.00 Build 0)  -->
<svg version="1.1" xmlns="http://www.w3.org/2000/svg" xmlns:xlink="http://www.w3.org/1999/xlink" x="0px" y="0px"
	 viewBox="0 0 103.2 114.7" style="enable-background:new 0 0 103.2 114.7;" xml:space="preserve">
<style type="text/css">
	.st0{fill:#F9D7BE;}
	.st1{fill:#C9D9F3;}
	.st2{fill:#50688E;}
	.st3{fill:#F78428;}
</style>
<g id="Layer_3">
</g>
<g id="Layer_1">
	<g id="Layer_2">
		<path class="st0" d="M84.2,33.6l-0.3,8.9c0,0-5.1,8-5.2,8.3c-0.1,0.3-3.3,10.5-3.3,10.5l-0.3,6l-0.5,3.9l-5.8,1l-7-1.1L61,67.3
			l-0.9-8.2l-2.5-8.5l-4.2-6.4l-1.7-6l1.2-8l4.3-5.6l9.2-3.9c0,0,8.3,1.5,8.5,1.6c0.2,0.1,6.2,4.8,6.2,4.8L84.2,33.6z"/>
	</g>
	<polygon class="st1" points="54.5,109.4 54.5,102.6 49.9,96.3 44.5,95.4 10.7,95.4 5.2,99.6 3,106.3 3.8,109.9 54.5,109.9 	"/>
	<path class="st2" d="M28,63.8l-3.6,7.3c-0.3,0.6-0.3,1.2,0.1,1.8c0.3,0.5,0.9,0.9,1.5,0.9h5.5v-3.6h-2.5l2.3-4.6L28,63.8z"/>
	<path class="st2" d="M35.9,79l-1.6-3.3c-2.1,1.1-4.5,1.6-6.9,1.6H26V81h1.4C30.3,81,33.2,80.3,35.9,79z"/>
	<path class="st2" d="M13.2,93.7c-6,0-10.9,4.9-10.9,10.9v5.5c0,1,0.8,1.8,1.8,1.8h50.9c1,0,1.8-0.8,1.8-1.8v-5.5
		c0-6-4.9-10.9-10.9-10.9h-7.3v-6c5.8-3.1,9.6-9.1,10.1-15.7l0-0.1h0.8c4,0,7.3-3.3,7.3-7.3h-3.6c0,2-1.6,3.6-3.6,3.6H47
		c-1,0-1.8,0.7-1.8,1.7l-0.1,1.9c-0.3,5.7-3.8,10.8-9,13.2c-4.1,1.9-8.9,1.9-13,0c-5.2-2.4-8.7-7.5-9-13.2l-0.7-12.7h22.4v-3.6h-28
		c-1,0-1.8-0.8-1.8-1.8c0-0.5,0.2-1,0.6-1.3c0.3-0.3,0.8-0.5,1.3-0.5h30.9v-3.6h-29c0.4-4.5,2.3-8.7,5.4-11.9v8.3h3.6V33.3
		c1.1-0.8,2.4-1.4,3.6-1.9v11.4c0,1,0.8,1.8,1.8,1.8h5.5V41H26V26.4h6.4v-3.6h-8.2c-1,0-1.8,0.8-1.8,1.8v3c-2.3,0.7-4.5,1.8-6.5,3.3
		C10.1,35,6.5,41.5,6,48.5c-0.8,0.3-1.5,0.7-2.1,1.3c-1,1-1.6,2.4-1.6,3.9c0,2.1,1.2,4,3.2,4.9c-2.6,1.8-3.8,5.1-2.8,8.1
		c0.9,3,3.7,5.1,6.9,5.1h0.8V72c0.4,6.6,4.2,12.6,10.1,15.7v6H13.2z M9.6,68.2c-2,0-3.6-1.6-3.6-3.6c0-2,1.6-3.6,3.6-3.6h0.2
		l0.4,7.3H9.6z M6,104.6c0-3.3,2.3-6.2,5.5-7v10.7H6V104.6z M15.1,97.3h12.7v10.9H15.1V97.3z M53.2,104.6v3.6h-5.5V97.6
		C51,98.4,53.2,101.3,53.2,104.6z M44.2,108.2H31.4V97.3h12.7V108.2z M24.2,89.3c3.6,1.1,7.4,1.1,10.9,0v4.4H24.2V89.3z"/>
	<path class="st3" d="M66,77.3h3.6V81H66V77.3z"/>
	<path class="st3" d="M66,84.6h3.6v3.6H66V84.6z"/>
	<path class="st3" d="M58.7,84.6h3.6v3.6h-3.6V84.6z"/>
	<path class="st3" d="M51.4,84.6h3.6v3.6h-3.6V84.6z"/>
	<path class="st3" d="M44.2,84.6h3.6v3.6h-3.6V84.6z"/>
	<path class="st3" d="M100.5,30.1h-6.5c-0.6-2.2-1.5-4.2-2.6-6.2l4.6-4.6c0.7-0.7,0.7-1.9,0-2.6l-7.7-7.7c-0.7-0.7-1.9-0.7-2.6,0
		l-4.6,4.6c-1.9-1.1-4-2-6.2-2.6V4.6c0-1-0.8-1.8-1.8-1.8H62.3c-1,0-1.8,0.8-1.8,1.8v6.5c-0.8,0.2-1.6,0.5-2.4,0.8
		c-1.3,0.5-2.6,1.1-3.8,1.8L49.8,9c-0.7-0.7-1.9-0.7-2.6,0l-7.7,7.7c-0.7,0.7-0.7,1.9,0,2.6l4.6,4.6c-0.4,0.6-0.7,1.3-1,2
		c-0.6,1.4-1.2,2.8-1.6,4.2h-6.5c-1,0-1.8,0.8-1.8,1.8v10.9c0,1,0.8,1.8,1.8,1.8h6.5c0.3,1.2,0.8,2.4,1.3,3.6
		c0.3,0.6,0.5,1.1,0.8,1.7l0.2,0.3c0.1,0.1,0.1,0.2,0.2,0.3l0.2,0.3l-4.6,4.6c-0.3,0.3-0.5,0.8-0.5,1.3c0,0.5,0.2,0.9,0.5,1.3
		l7.7,7.7c0.7,0.7,1.9,0.7,2.6,0l4.6-4.6c1.4,0.8,2.8,1.4,4.3,1.9v5.3c0,3,2.4,5.5,5.5,5.5h7.3c3,0,5.5-2.4,5.5-5.5V63
		c1.5-0.5,3-1.2,4.3-1.9l4.6,4.6c0.7,0.7,1.9,0.7,2.6,0l7.7-7.7c0.7-0.7,0.7-1.9,0-2.6l-4.6-4.6c1.1-1.9,2-4,2.6-6.2h6.5
		c1,0,1.8-0.8,1.8-1.8V31.9C102.3,30.9,101.5,30.1,100.5,30.1z M73.3,61h-11c-0.4-5.4-2.4-10.5-5.9-14.6c-2.1-2.6-3.2-5.7-3.2-9
		c0-7.9,6.2-14.3,14.1-14.6c5.8-0.2,11.1,3,13.6,8.3c2.5,5.2,1.6,11.4-2.2,15.8C75.4,50.8,73.4,55.8,73.3,61z M73.2,68.2
		c0,1-0.8,1.8-1.8,1.8h-7.3c-1,0-1.8-0.8-1.8-1.8v-3.6h10.9V68.2z M98.7,41h-6.1c-0.9,0-1.6,0.6-1.8,1.4c-0.6,2.7-1.7,5.3-3.2,7.7
		c-0.5,0.7-0.4,1.7,0.2,2.3l4.3,4.3l-5.1,5.1l-4.3-4.3c-0.6-0.6-1.5-0.7-2.3-0.2c-1.1,0.7-2.2,1.3-3.4,1.8c0.5-3.6,2-7,4.4-9.8
		c4.7-5.4,5.8-13.2,2.7-19.7c-3.1-6.5-9.8-10.6-17-10.4c-9.8,0.4-17.6,8.4-17.6,18.2c0,4.1,1.4,8.1,4,11.3c2.5,3,4.1,6.5,4.8,10.3
		c-1.2-0.5-2.3-1.1-3.3-1.8c-0.7-0.5-1.7-0.4-2.3,0.2l-4.3,4.3l-5.1-5.1l4.3-4.3c0.6-0.6,0.7-1.5,0.3-2.2l-0.2-0.3
		c-0.1-0.1-0.2-0.2-0.2-0.4l-0.2-0.3L47,48.5c0,0,0-0.1-0.1-0.1l-0.1-0.1c-0.2-0.5-0.5-1-0.7-1.5c-0.6-1.4-1.1-2.9-1.4-4.3
		c-0.2-0.8-0.9-1.4-1.8-1.4h-6.1v-7.3h6.1c0.9,0,1.6-0.6,1.8-1.4c0.4-1.7,0.9-3.3,1.6-4.9c0.5-1,1-1.9,1.5-2.8
		c0.5-0.7,0.4-1.7-0.2-2.3L43.4,18l5.1-5.1l4.3,4.3c0.6,0.6,1.5,0.7,2.3,0.2c1.4-0.9,2.8-1.6,4.4-2.2c1.1-0.4,2.2-0.7,3.3-1
		c0.8-0.2,1.4-0.9,1.4-1.8V6.4h7.3v6.1c0,0.9,0.6,1.6,1.4,1.8c2.7,0.6,5.3,1.7,7.7,3.2c0.7,0.5,1.7,0.4,2.3-0.2l4.3-4.3l5.1,5.1
		l-4.3,4.3c-0.6,0.6-0.7,1.5-0.2,2.3c1.5,2.3,2.6,4.9,3.2,7.7c0.2,0.8,0.9,1.4,1.8,1.4h6.1V41z M45.5,50.2l0.2-0.1L45.5,50.2
		L45.5,50.2z"/>
	<path class="st3" d="M66.3,30.2l-0.8-3.6c-4.2,0.9-7.5,4.2-8.5,8.5l3.6,0.8C61.3,33.1,63.5,30.8,66.3,30.2z"/>
	<path class="st3" d="M67.8,43.9l-4.2-4.2L61,42.3l4.9,4.9v10.2h3.6V47.2l4.9-4.9L72,39.7L67.8,43.9z"/>
	<path class="st2" d="M24.2,66.4c0,2-1.6,3.6-3.6,3.6s-3.6-1.6-3.6-3.6s1.6-3.6,3.6-3.6S24.2,64.4,24.2,66.4z"/>
	<path class="st2" d="M42.3,66.4c0,2-1.6,3.6-3.6,3.6c-2,0-3.6-1.6-3.6-3.6s1.6-3.6,3.6-3.6C40.7,62.8,42.3,64.4,42.3,66.4z"/>
</g>
</svg>
