<?xml version="1.0" encoding="utf-8"?>
<!-- Generator: Adobe Illustrator 21.1.0, SVG Export Plug-In . SVG Version: 6.00 Build 0)  -->
<svg version="1.1" xmlns="http://www.w3.org/2000/svg" xmlns:xlink="http://www.w3.org/1999/xlink" x="0px" y="0px"
	 viewBox="0 0 102.8 104" style="enable-background:new 0 0 102.8 104;" xml:space="preserve">
<style type="text/css">
	.st0{fill:#F9D7BE;}
	.st1{fill:#C7D8F3;}
	.st2{fill:#50688E;}
	.st3{fill:#F78428;}
</style>
<g id="Layer_2">
	<path class="st0" d="M77,73.7l0.3,18.6l2.8,5.5l6.6,3.4l5.3-1.2c0,0,4.2-3.5,4.4-3.6s1.6-6.1,1.6-6.1l-0.3-14.6L92,75.2L85.4,73
		l-4.5-0.7H77V73.7z"/>
</g>
<g id="Layer_3">
	<circle class="st1" cx="61.4" cy="33.4" r="10.7"/>
	<rect x="32.6" y="74.8" class="st1" width="23.8" height="17.9"/>
</g>
<g id="Capa_1">
	<g>
		<path class="st2" d="M51.7,57.6c-3.2,0-5.8-2.6-5.8-5.8c0-3.2,2.6-5.8,5.8-5.8c3.2,0,5.8,2.6,5.8,5.8C57.4,55,54.8,57.6,51.7,57.6
			z M51.7,49.1c-1.5,0-2.8,1.2-2.8,2.8c0,1.5,1.2,2.8,2.8,2.8s2.8-1.2,2.8-2.8C54.4,50.3,53.2,49.1,51.7,49.1z"/>
	</g>
	<path class="st2" d="M44.2,88.8c2.8,0,5-2.2,5-5c0-2.8-2.2-5-5-5c-2.7,0-5,2.2-5,5C39.3,86.5,41.5,88.8,44.2,88.8z M44.2,81.8
		c1.1,0,2,0.9,2,2c0,1.1-0.9,2-2,2c-1.1,0-2-0.9-2-2C42.2,82.7,43.1,81.8,44.2,81.8z"/>
	<g>
		<path class="st3" d="M98.6,45.9L98.6,45.9l-19.3,0c0,0-3,0-3,0.1c-1.4,0.3-2.5,1.5-2.5,3v4.4c0,1.3,0.8,2.5,2,2.9v0.7v7.8
			c0,0,0,0,0,0v25.8c0,6.6,5.3,11.9,11.9,11.9s11.9-5.4,11.9-11.9V56.2c1.2-0.4,2-1.6,2-2.9V49C101.7,47.3,100.3,45.9,98.6,45.9z
			 M96.7,90.5c0,4.9-4,8.9-8.9,8.9c-4.9,0-8.9-4-8.9-8.9v-1.8H82c0.8,0,1.5-0.7,1.5-1.5c0-0.8-0.7-1.5-1.5-1.5h-3.2v-4.2H82
			c0.8,0,1.5-0.7,1.5-1.5c0-0.8-0.7-1.5-1.5-1.5h-3.2v-4.2H80c3.2,0,4.3,0.4,5.6,0.9c1.7,0.6,3.6,1.4,9,1.4l2,0L96.7,90.5z
			 M78.8,71.4v-15h17.9v17.4l-2,0c-4.9,0-6.4-0.6-7.9-1.2c-1.5-0.6-3-1.2-6.7-1.2H78.8z M98.6,53.4H76.9c0,0-0.1,0-0.1-0.1V49
			c0-0.1,0-0.1,0.1-0.1H78h0h0h20.6c0,0,0.1,0,0.1,0.1L98.6,53.4L98.6,53.4C98.7,53.4,98.6,53.4,98.6,53.4z"/>
		<path class="st2" d="M73.9,61.9c-1,2-2.3,3.9-3.8,5.6c-0.4-2.3-2.3-4-4.7-4c3.2-3.6,5-8.3,5-13.2c0-2.6-0.5-5-1.4-7.4
			c1.9-1.4,3.3-3.4,4.1-5.6c1.2,2,2,4.1,2.6,6.3h3.1c-0.9-3.8-2.6-7.4-4.9-10.6c0,0,0-0.1,0-0.1c0-4.8-2.7-9-6.7-11.1
			c0.9-2.1,0.7-4.5-0.5-6.5l2-2c1.1-1.1,1.7-2.5,1.7-4c0-1.5-0.6-3-1.7-4l-2.4-2.4c-1.1-1.1-2.5-1.7-4-1.7c0,0,0,0,0,0
			c-1.5,0-3,0.6-4,1.7l-2,2c-1.1-0.7-2.4-1.1-3.8-1.1c-1.9,0-3.6,0.7-4.9,2l-7.2,7.2c-0.6,0.6-0.6,1.5,0,2.1c0.6,0.6,1.5,0.6,2.1,0
			L49.6,8c0.7-0.7,1.7-1.2,2.8-1.2c1.1,0,2.1,0.4,2.8,1.2l8.3,8.4c0,0,0,0,0,0c1.2,1.2,1.5,3,0.8,4.5c-1-0.2-2-0.4-3-0.4
			c-6.9,0-12.5,5.6-12.5,12.5c0,1.1,0.2,2.2,0.4,3.3l-6.1,6.1c-0.7,0.7-1.7,1.2-2.8,1.2c-1.1,0-2.1-0.4-2.8-1.2L29.2,34
			c-1.5-1.5-1.5-4,0-5.7l8.3-8.8c0.6-0.6,0.5-1.5-0.1-2.1c-0.6-0.6-1.5-0.5-2.1,0.1l-8.3,8.8c-2.3,2.4-2.6,6-0.9,8.7l-2,2
			c-2.2,2.2-2.2,5.8,0,8.1l2.4,2.4c1.1,1.1,2.5,1.7,4,1.7h0c1.5,0,3-0.6,4-1.7l2-2c1.1,0.7,2.4,1.1,3.8,1.1c1.9,0,3.6-0.7,4.9-2
			l5.2-5.2c2.2,3.7,6.2,6.3,10.8,6.3c1.8,0,3.5-0.4,5-1c0.7,1.9,1,3.8,1,5.8c0,5.1-2.4,10-6.4,13.2H31.1c-0.8,0-1.5,0.7-1.5,1.5
			c0,0.8,0.7,1.5,1.5,1.5h30.4h0h0h3.8c1,0,1.8,0.8,1.8,1.8V71c0,1-0.8,1.8-1.8,1.8H9c-1,0-1.8-0.8-1.8-1.8v-2.8
			c0-1,0.8-1.8,1.8-1.8h15.2c0.8,0,1.5-0.7,1.5-1.5c0-0.8-0.7-1.5-1.5-1.5H9c-2.6,0-4.8,2.2-4.8,4.8V71c0,2.6,2.2,4.8,4.8,4.8h2.8
			v2.1c0,2.8,2.3,5.1,5.1,5.1h13.8v8.7H7c-2.9,0-5.3,2.4-5.3,5.3v3.3c0,1.1,0.9,2,2,2h63.1c1.1,0,2-0.9,2-2v-3.3
			c0-2.9-2.4-5.3-5.3-5.3h-5.6V75.8h7.6c2.4,0,4.4-1.8,4.7-4.1c1.4-1.3,2.7-2.7,3.8-4.2V61.9z M32.5,45.4c-0.5,0.5-1.2,0.8-1.9,0.8
			c0,0,0,0,0,0c-0.7,0-1.4-0.3-1.9-0.8L26.3,43c-1.1-1.1-1.1-2.8,0-3.9l1.9-1.9l6.2,6.2L32.5,45.4z M64.7,13.2l-6.2-6.2L60.4,5
			c0.5-0.5,1.2-0.8,1.9-0.8h0c0.7,0,1.4,0.3,1.9,0.8l2.4,2.4c0.5,0.5,0.8,1.2,0.8,1.9c0,0.7-0.3,1.4-0.8,1.9L64.7,13.2z M61.4,42.5
			c-5.3,0-9.5-4.3-9.5-9.5c0-5.3,4.3-9.5,9.5-9.5s9.5,4.3,9.5,9.5C70.9,38.2,66.7,42.5,61.4,42.5z M30.7,80H16.9
			c-1.2,0-2.1-0.9-2.1-2.1v-2.1h15.9V80z M33.7,81.5v-5.7h21.2v15.9H33.7V81.5z M63.4,94.7c1.3,0,2.4,1.1,2.4,2.4v2.4H4.7v-2.4
			c0-1.3,1.1-2.4,2.4-2.4h25.2h24.1H63.4z"/>
	</g>
</g>
</svg>
