<?xml version="1.0" encoding="utf-8"?>
<!-- Generator: Adobe Illustrator 21.1.0, SVG Export Plug-In . SVG Version: 6.00 Build 0)  -->
<svg version="1.1" id="Layer_1" xmlns="http://www.w3.org/2000/svg" xmlns:xlink="http://www.w3.org/1999/xlink" x="0px" y="0px"
	 viewBox="0 0 102.5 93.7" style="enable-background:new 0 0 102.5 93.7;" xml:space="preserve">
<style type="text/css">
	.st0{fill:#C7D8F3;}
	.st1{fill:#50688E;}
	.st2{fill:#F9D7BE;}
	.st3{fill:#F78428;}
</style>
<polygon class="st0" points="99.5,25.9 99.5,12.2 99.5,8.4 95.2,4.4 89.9,2.9 85.6,4.7 82.5,8.6 81.3,12.2 81.3,26.4 "/>
<polygon class="st0" points="65.7,89.1 59.8,85.4 57.2,79.2 57.2,70.4 2.9,70.4 1.8,76.5 4.6,85 12,90.1 16.5,90.1 65.7,90.1 "/>
<path class="st1" d="M90.6,1.4H26c-5.6,0-10.2,4.5-10.2,10.1l-0.4,56.9H2.7c-0.9,0-1.6,0.8-1.6,1.7v7.8c0,7.3,5.9,13.3,13,13.7v0.1
	h54.5v-0.1c0.4,0,0.6,0.1,0.9,0.1h0c7.6,0,13.6-6.2,13.6-13.8V28.1h16.4c0.9,0,1.6-0.8,1.6-1.7V12C101.2,6.2,96.5,1.4,90.6,1.4z
	 M14.8,88.4L14.8,88.4c-5.8,0-10.4-4.8-10.4-10.5v-6.3h51.4v6.3c0,3.6,1.4,7.1,4,9.7c0.3,0.3,0.6,0.4,0.9,0.8H14.8z M79.9,77.9
	c0,5.8-4.6,10.5-10.4,10.5h0c-5.8,0-10.5-4.8-10.4-10.5V70c0-0.9-0.7-1.7-1.6-1.7H18.6L19,11.4c0-3.8,3.1-6.8,6.9-6.8h57
	c-1.8,2-3.1,4.6-3.1,7.4V77.9z M97.9,12v12.8H83.2V12c0-4.1,3.4-7.4,7.4-7.4h0C94.7,4.6,97.9,8,97.9,12L97.9,12z"/>
<path class="st2" d="M35.6,20.2l12.8-6.6l13,7.2c0,0,0.1,10,0,10.4c-0.1,0.4-2.3,7.2-2.3,7.2l-5.7,4l-5,3.2l-8.7-6.1l-4-4.9v-4.3
	V20.2z"/>
<path class="st3" d="M39.2,41.2l8.3,5.7c0.5,0.4,1.3,0.4,1.8,0l8.3-5.7c2.9-2,5-6.1,5-9.6V20.1c0-0.6-0.3-1.2-0.9-1.5l-12.7-6.3
	c-0.4-0.2-1-0.2-1.4,0L35,18.6c-0.5,0.3-0.9,0.8-0.9,1.5v11.6C34.2,35.1,36.3,39.2,39.2,41.2z M37.4,21.1l11-5.4l11,5.5v10.5
	c0,2.4-1.6,5.5-3.6,6.9l-7.4,5.1L41,38.5c-2-1.4-3.6-4.5-3.6-6.9V21.1z"/>
<path class="st3" d="M45.7,34.1c0.3,0.3,0.7,0.5,1.1,0.5h0c0.4,0,0.8-0.2,1.1-0.5l6.4-6.4c0.6-0.6,0.6-1.7,0-2.3
	c-0.6-0.6-1.7-0.6-2.3,0l-5.3,5.3l-2.1-2.1c-0.6-0.6-1.7-0.6-2.3,0s-0.6,1.7,0,2.3L45.7,34.1z"/>
<path class="st3" d="M68.6,51.6H29.7c-0.9,0-1.6,0.7-1.6,1.6s0.7,1.6,1.6,1.6h38.9c0.9,0,1.6-0.7,1.6-1.6S69.5,51.6,68.6,51.6z"/>
<path class="st3" d="M68.6,59.1H29.7c-0.9,0-1.6,0.7-1.6,1.6c0,0.9,0.7,1.6,1.6,1.6h38.9c0.9,0,1.6-0.7,1.6-1.6
	C70.2,59.8,69.5,59.1,68.6,59.1z"/>
</svg>
