<?xml version="1.0" encoding="utf-8"?>
<!-- Generator: Adobe Illustrator 21.1.0, SVG Export Plug-In . SVG Version: 6.00 Build 0)  -->
<svg version="1.1" id="Capa_1" xmlns="http://www.w3.org/2000/svg" xmlns:xlink="http://www.w3.org/1999/xlink" x="0px" y="0px"
	 viewBox="0 0 108 91.9" style="enable-background:new 0 0 108 91.9;" xml:space="preserve">
<style type="text/css">
	.st0{fill:#C8D9F3;}
	.st1{fill:#50688E;}
	.st2{fill:#F78428;}
</style>
<path class="st0" d="M24.1,39.4l-3.3,2.8l-0.3,5.4l7.6,7.2c0,0,4.8-0.7,5.1-0.7c0.3,0.1,2.9-6.1,3.1-6c0.2,0.1,5.3-2,5.6-1.7
	c0.3,0.3,2.3-6.4,2.3-6.4s5.2-1.1,5.4-1s2-6.2,2-6.2s5.7-2.7,6-2.7s1.1-4.6,1.1-4.6L43.6,10.1l-5.9,0.6c0,0-0.9,7.6-0.8,7.9
	C37,19,31,20.8,31,20.8l-0.3,6.8l-5.3,3.4v5.5l-1.4,2l0.3,1H24.1z"/>
<g>
	<g>
		<path class="st1" d="M103.4,66l-4.8-4.7c-0.8-0.8-2-0.8-2.8,0c-0.8,0.8-0.8,2,0,2.8l4.8,4.7c0.4,0.4,0.9,0.6,1.4,0.6
			c0.5,0,1-0.2,1.4-0.6C104.2,68,104.2,66.8,103.4,66z"/>
	</g>
</g>
<g>
	<g>
		<path class="st1" d="M93.8,56.4c-0.8-0.8-2-0.8-2.8,0l0,0c-0.8,0.8-0.8,2,0,2.8c0.4,0.4,0.9,0.6,1.4,0.6c0.5,0,1-0.2,1.4-0.6
			C94.6,58.4,94.6,57.2,93.8,56.4z"/>
	</g>
</g>
<path class="st2" d="M21.6,56l-17,17c-0.8,0.8-0.8,2,0,2.8C5,76.2,5.5,76.4,6,76.4c0.5,0,1-0.2,1.4-0.6l17-17L21.6,56z"/>
<path class="st1" d="M66.5,77.9c-0.4-0.4-1-0.6-1.5-0.6l-0.6,0.1c-1.7,0.1-3.5,0-5.1-0.5l-3.1,3.1c2.6,1.1,5.4,1.5,8.2,1.4
	l10.1,10.1c0.4,0.4,0.9,0.6,1.4,0.6c0.5,0,1-0.2,1.4-0.6c0.8-0.8,0.8-2,0-2.8L66.5,77.9z"/>
<g>
	<path class="st2" d="M96.1,36.1c-1-1-2.2-1.7-3.6-2c0.4-1,0.7-2,0.7-3.1c0-2-0.8-3.8-2.2-5.2c-1.1-1.1-2.5-1.8-4-2
		c0.8-2.6,0.2-5.5-1.8-7.5c-1.1-1.1-2.5-1.8-4-2c0.2-0.7,0.4-1.5,0.4-2.3c0-2-0.8-3.8-2.2-5.2c-1.4-1.4-3.2-2.2-5.2-2.2
		c-1.2,0-2.4,0.3-3.5,0.9l-5.1,4.7l0,0l-7.4,7.4l2.8,2.8L71.9,9.5c0.7-0.7,1.5-1,2.4-1c0.9,0,1.8,0.4,2.4,1c0.7,0.7,1,1.5,1,2.4
		c0,0.9-0.4,1.8-1,2.4l-1.9,1.9L68,23.2c-0.8,0.8-0.8,2,0,2.8c0.4,0.4,0.9,0.6,1.4,0.6c0.5,0,1-0.2,1.4-0.6l6.9-6.9
		c1.3-1.3,3.5-1.3,4.9,0c1.3,1.3,1.3,3.5,0,4.9l-1.9,1.9l-5,5c-0.8,0.8-0.8,2,0,2.8c0.4,0.4,0.9,0.6,1.4,0.6c0.5,0,1-0.2,1.4-0.6
		l5-5c0.7-0.7,1.5-1,2.4-1c0.9,0,1.8,0.4,2.4,1c0.7,0.7,1,1.5,1,2.4c0,0.9-0.4,1.8-1,2.4l-2.6,2.6l-2.4,2.4c-0.8,0.8-0.8,2,0,2.8
		c0.4,0.4,0.9,0.6,1.4,0.6c0.5,0,1-0.2,1.4-0.6l2.4-2.4c1.3-1.3,3.5-1.3,4.9,0c1.3,1.3,1.3,3.5,0,4.9l-19,19
		c-4.8,4.8-11.1,7.5-17.8,7.8c-0.5,0-1,0.2-1.3,0.6L37.8,88.6c-0.8,0.8-0.8,2,0,2.8c0.4,0.4,0.9,0.6,1.4,0.6c0.5,0,1-0.2,1.4-0.6
		l11.1-11.1l0,0l1.8-1.8c0,0,0,0,0,0l2.8-2.9c0,0,0,0,0,0l1.3-1.3c0,0,0,0,0,0l0,0l0,0c7.4-0.5,14.3-3.6,19.6-8.9l19-19
		C99,43.6,99,39,96.1,36.1z"/>
	<path class="st1" d="M37.7,49.7c0.1,0,0.2,0,0.3,0c1.9,0,3.8-0.7,5.2-2.2c1.4-1.4,2.2-3.2,2.2-5.2c0-0.1,0-0.2,0-0.3
		c0.1,0,0.2,0,0.3,0c1.9,0,3.8-0.7,5.2-2.2c1.4-1.4,2.2-3.2,2.2-5.2c0-0.1,0-0.2,0-0.3c0.1,0,0.2,0,0.3,0c1.9,0,3.8-0.7,5.2-2.2
		c2.7-2.7,2.9-7,0.5-9.9l0,0l-2.8-2.8l0,0l-5.4-5.4c0.6,0.1,1.2,0.2,1.9,0.2c0,0,0,0,0,0l5.4,0c1.1,0,1.9-0.9,1.9-2
		c0-1.1-0.9-1.9-2-1.9c0,0,0,0,0,0l-5.4,0c0,0,0,0,0,0c-1.3,0-2.6-0.5-3.5-1.4c-0.9-0.9-1.5-2.2-1.5-3.5V5h13.4c1.5,0,3,0.4,4.3,1.1
		l2.8-2.8c-2.1-1.4-4.6-2.2-7.1-2.2H45.8c-1.1,0-2,0.9-2,2v2.6c0,1,0.2,2,0.5,3C43.5,8.2,42.5,8,41.6,8c-2,0-3.8,0.8-5.2,2.2
		c-2,2-2.6,5-1.8,7.5c-1.4,0.2-2.8,0.9-4,2c-1.4,1.4-2.2,3.2-2.2,5.2c0,0.8,0.1,1.6,0.4,2.3c-1.5,0.3-2.9,1-3.9,2
		c-2.2,2.2-2.7,5.6-1.5,8.3c-1.3,0.3-2.6,1-3.6,2c-2.9,2.9-2.9,7.5,0,10.4l3.9,3.9l0,0l3,2.6c1.1,0.6,2.3,1,3.6,1
		c2,0,3.8-0.8,5.2-2.2C37.1,53.7,37.8,51.7,37.7,49.7z M39.1,12.9c0.7-0.7,1.6-1,2.4-1c0.9,0,1.8,0.3,2.4,1l11.7,11.7
		c0.7,0.7,1,1.5,1,2.4c0,0.9-0.4,1.8-1,2.4c-1.3,1.3-3.5,1.3-4.9,0L41,19.7c0,0,0,0,0,0l-1.9-1.9C37.8,16.5,37.8,14.3,39.1,12.9z
		 M33.4,22.5c0.7-0.7,1.6-1,2.4-1c0.9,0,1.8,0.3,2.4,1l4.5,4.5l5.3,5.3h0c0.7,0.7,1,1.5,1,2.4c0,0.9-0.4,1.8-1,2.4
		c-1.3,1.3-3.5,1.3-4.9,0l-9.8-9.8c-0.7-0.7-1-1.5-1-2.4C32.4,24,32.7,23.1,33.4,22.5z M32.8,52.5c-0.7,0.7-1.5,1-2.4,1
		c-0.9,0-1.8-0.4-2.4-1l-5.3-5.3c-1.3-1.3-1.3-3.5,0-4.9c0.7-0.7,1.5-1,2.4-1s1.8,0.4,2.4,1l5.3,5.3C34.1,48.9,34.1,51.1,32.8,52.5z
		 M30.3,39.6l-2.6-2.6c-1.3-1.3-1.3-3.5,0-4.9c0.7-0.7,1.5-1,2.4-1c0.9,0,1.8,0.4,2.4,1l7.9,7.9c0,0,0,0,0,0c0.7,0.7,1,1.5,1,2.4
		c0,0.9-0.4,1.8-1,2.4c-1.3,1.3-3.5,1.3-4.9,0L30.3,39.6z"/>
</g>
</svg>
