<?xml version="1.0" encoding="utf-8"?>
<!-- Generator: Adobe Illustrator 21.1.0, SVG Export Plug-In . SVG Version: 6.00 Build 0)  -->
<svg version="1.1" id="icons" xmlns="http://www.w3.org/2000/svg" xmlns:xlink="http://www.w3.org/1999/xlink" x="0px" y="0px"
	 viewBox="0 0 100 100.3" style="enable-background:new 0 0 100 100.3;" xml:space="preserve">
<style type="text/css">
	.st0{fill:#F9D7BE;}
	.st1{fill:#C7D8F3;}
	.st2{fill:#F7872E;}
	.st3{fill:#526A8F;}
</style>
<polygon class="st0" points="50,60 6,98.1 6,99 93.8,98.4 93.8,97.1 "/>
<rect x="47.5" y="14.9" class="st1" width="5.6" height="32.5"/>
<rect x="42.5" y="2.4" class="st1" width="15.1" height="3.4"/>
<path class="st2" d="M73.5,92.5L73.5,92.5c-0.9,0-1.6,0.7-1.6,1.6c0,0.9,0.7,1.6,1.6,1.6c0.9,0,1.6-0.7,1.6-1.6
	C75,93.2,74.3,92.5,73.5,92.5z"/>
<path class="st2" d="M76.6,89.4L76.6,89.4c-0.9,0-1.6,0.7-1.6,1.6s0.7,1.6,1.6,1.6c0.9,0,1.6-0.7,1.6-1.6S77.5,89.4,76.6,89.4z"/>
<path class="st2" d="M79.7,92.5L79.7,92.5c-0.9,0-1.6,0.7-1.6,1.6c0,0.9,0.7,1.6,1.6,1.6c0.9,0,1.6-0.7,1.6-1.6
	C81.3,93.2,80.6,92.5,79.7,92.5z"/>
<g>
	<path class="st2" d="M98.4,97.2h-2.5L60.4,66.6c0,0,0,0,0,0l-3.7-3.2l0,0l-5.6-4.9c-0.6-0.5-1.5-0.5-2,0l-5.4,4.7l-5.2,4.5l0,0
		L4.1,97.2H1.6c-0.9,0-1.6,0.7-1.6,1.6c0,0.9,0.7,1.6,1.6,1.6h96.9c0.9,0,1.6-0.7,1.6-1.6C100,97.9,99.3,97.2,98.4,97.2z M8.9,97.2
		L42.8,68c0,0,0,0,0,0c0,0,0,0,0,0l7.3-6.3l7.2,6.2c0,0,0,0,0,0h0l33.8,29.2H8.9z"/>
	<path class="st3" d="M37.5,50.3v9.3c0,0,0,0,0,0c0,1.8,0.4,3.5,1.1,5.1l2.6-2c-0.3-1-0.5-2-0.5-3h0v-9.4h18.7v9.4
		c0,1-0.2,1.9-0.5,2.8l2.5,2.2c0.7-1.6,1.1-3.3,1.1-5c0,0,0,0,0,0v-9.3c0.9,0,1.6-0.7,1.6-1.6c0-0.9-0.7-1.6-1.6-1.6h-8.6V15.1
		c3.2-1.5,5.5-4.7,5.5-8.5c0,0,0,0,0,0V1.9c0-0.9-0.7-1.6-1.6-1.6H42.2c-0.9,0-1.6,0.7-1.6,1.6v4.7c0,0,0,0,0,0c0,3.8,2.2,7,5.4,8.5
		v32.1h-8.6c-0.9,0-1.6,0.7-1.6,1.6C35.9,49.6,36.6,50.3,37.5,50.3z M50.8,47.2h-1.6v-25h1.6V47.2z M50.8,19.1h-1.6v-3.2
		c0.3,0,0.5,0,0.8,0c0.3,0,0.5,0,0.8,0V19.1z M43.7,3.5h12.5V5H43.7V3.5z M44,8.1H56c-0.7,2.7-3.1,4.7-6,4.7
		C47.1,12.8,44.7,10.8,44,8.1z"/>
</g>
</svg>
