<?xml version="1.0" encoding="utf-8"?>
<!-- Generator: Adobe Illustrator 21.1.0, SVG Export Plug-In . SVG Version: 6.00 Build 0)  -->
<svg version="1.1" xmlns="http://www.w3.org/2000/svg" xmlns:xlink="http://www.w3.org/1999/xlink" x="0px" y="0px"
	 viewBox="0 0 103 94.5" style="enable-background:new 0 0 103 94.5;" xml:space="preserve">
<style type="text/css">
	.st0{fill:#CEDDF5;}
	.st1{fill:#526A8F;}
	.st2{fill:#F9D7BE;}
	.st3{fill:#F7872E;}
</style>
<g id="Layer_3">
</g>
<g id="Layer_1">
	<g id="Layer_2">
		<polygon class="st0" points="48.9,32.6 52.6,29.3 80.4,29.3 84,32.6 84,44.6 81,48.1 78.9,48.8 53.4,48.8 48.9,45.4 		"/>
	</g>
	<path class="st1" d="M37.5,17.7c-2,3.5-3.6,8.3-4.8,14c-0.2,0.8,0.4,1.6,1.2,1.7c0.1,0,0.2,0,0.3,0c0.7,0,1.3-0.5,1.4-1.2
		c1.2-6.1,3-11,5.2-14.3c0.2-0.4,0.3-0.8,0.2-1.2c-0.1-0.4-0.4-0.7-0.8-0.9c-0.4-0.2-0.8-0.4-1.2-0.6c-2.4-1.4-3.4-2.6-3.8-3.5
		c-0.4-0.9-0.4-1.7,0-2.4c1-1.7,3.6-1.6,7,0.3c1.4,0.8,2.7,1.8,3.7,2.9c0.4,0.4,1,0.6,1.6,0.4c9.7-3.5,27.9-3.5,37.6,0
		c0.6,0.2,1.2,0.1,1.6-0.4c1-1.1,2.3-2,3.7-2.9c2.4-1.4,4-1.6,4.9-1.5c1,0.1,1.7,0.5,2.1,1.2c1,1.7-0.4,3.9-3.8,5.9
		c-0.4,0.2-0.8,0.4-1.2,0.6c-0.4,0.2-0.7,0.5-0.8,0.9c-0.1,0.4,0,0.8,0.2,1.2c1.7,2.6,3.2,6.1,4.3,10.6c0.2,0.8,1,1.3,1.8,1
		c0.8-0.2,1.3-1,1-1.8c-1-4-2.4-7.4-3.9-10.1c5.8-3.4,6.3-7.3,4.8-9.9c-0.9-1.6-2.5-2.5-4.4-2.7c-1.9-0.1-4.1,0.5-6.6,1.9
		c-1.4,0.8-2.6,1.7-3.7,2.7C75,6.4,57.6,6.4,47.4,9.8c-1.1-1-2.3-1.9-3.7-2.7c-5.8-3.4-9.5-1.8-11,0.8c-0.9,1.6-0.9,3.4-0.1,5.2
		C33.5,14.7,35.1,16.3,37.5,17.7z"/>
	<path class="st2" d="M76.4,91.2v-6.2L73,81.8l-5.3-0.4l-1.4-5.1c0,0-3.4-4.7-3.4-5s-5.2-3.9-5.2-3.9l-2.4-0.8L52.9,59l-5.7-6.7
		l-9.4-3.5l-6.3,1.4c0,0-7.5,3.6-8,4.3s-2.3,2.4-2.3,2.4l-2.6,6.7v8.6l-4.6,2.2l-2.1,5.8l-1,2.1l-5.7,0.2L2.9,85v4.9l0.8,2.1h72.7
		V91.2z"/>
	<path class="st1" d="M100.3,33.8c-0.1-0.8-0.9-1.3-1.7-1.2c-0.8,0.1-1.3,0.9-1.2,1.7c3,17.6,0.8,37.9-5.1,46.4
		c-0.2,0.3-0.3,0.8-0.2,1.2s0.4,0.8,0.7,0.9c0.3,0.1,0.5,0.3,0.8,0.4c3.4,1.9,4.8,4.1,3.8,5.9c-0.4,0.7-1.1,1.1-2.1,1.2
		c-0.9,0.1-2.5-0.1-4.9-1.5C89,88,87.8,87.1,86.8,86c-0.4-0.4-1-0.6-1.5-0.4c-1,0.3-2,0.6-3.2,0.9c-0.8,0.2-1.3,1-1.1,1.8
		c0.2,0.8,1,1.3,1.8,1.1c0.9-0.2,1.8-0.5,2.6-0.7c1,1,2.3,1.9,3.6,2.6c2.2,1.3,4.3,1.9,6.1,1.9c0.2,0,0.3,0,0.5,0
		c1.9-0.1,3.5-1.1,4.4-2.7c1.4-2.5,1-6.3-4.3-9.6c3.5-5.9,4.9-14.2,5.6-20.4C102.1,51.8,101.8,42.3,100.3,33.8z"/>
	<path class="st1" d="M85.4,43.4v-8.6c0-3.7-3-6.7-6.7-6.7H54c-3.7,0-6.7,3-6.7,6.7v8.6c0,3.7,3,6.7,6.7,6.7h24.7
		C82.4,50.2,85.4,47.1,85.4,43.4z M82.5,43.4c0,2.1-1.7,3.8-3.8,3.8H54c-2.1,0-3.8-1.7-3.8-3.8v-8.6c0-2.1,1.7-3.8,3.8-3.8h24.7
		c2.1,0,3.8,1.7,3.8,3.8V43.4z"/>
	<path class="st3" d="M70.9,80.3h-2.4c-0.6-7-5.5-12.9-12.3-14.7c-0.5-4.7-2.6-9.1-6-12.4c-3.7-3.5-8.5-5.4-13.6-5.5L24.7,15
		c2.9-3,4.3-7.2,3.6-11.3c-0.2-1-0.7-1.8-1.6-2.4c-0.9-0.5-1.9-0.6-2.8-0.3L5.7,7.7C4.7,8,4,8.7,3.6,9.7c-0.3,0.9-0.2,2,0.3,2.8
		c2.1,3.6,5.9,5.9,10.1,6.4l11.7,32.2c-2.3,1.5-4.3,3.6-5.9,6c-0.3,0.6-1.2,2.6-1.4,3c-0.1,0.2-0.1,0.4-0.2,0.6
		c-0.3,0.6-0.6,1.3-0.9,2.2c-0.3,1.2-0.5,2.4-0.5,3.6c-0.1,1.6,0,3.1,0.3,4.6c-3.8,1.6-6.5,5.1-7,9.2H8.7c-3.9,0-7.1,3.2-7.1,7.1
		v3.8c0,1.2,0.9,2.1,2.1,2.1h72.1c1.2,0,2.1-0.9,2.1-2.1v-3.8C78,83.5,74.8,80.3,70.9,80.3z M6.4,11c-0.1-0.1-0.1-0.3,0-0.4
		c0-0.1,0.1-0.2,0.3-0.3l18.2-6.6c0.2-0.1,0.5,0.1,0.6,0.3c0.8,4.8-2,9.6-6.7,11.3c-1.2,0.4-2.5,0.6-3.7,0.6
		C11.5,15.9,8.2,14,6.4,11z M17.1,18.8c0.9-0.1,1.8-0.4,2.7-0.7c0.9-0.3,1.7-0.7,2.5-1.2L33.6,48c-1.9,0.3-3.7,0.8-5.3,1.6
		L17.1,18.8z M75.1,90.4H4.6v-3c0-2.3,1.9-4.1,4.1-4.1h2.8c0.8,0,1.5-0.7,1.5-1.5c0-3.8,2.6-7.2,6.3-8.2c0.8-0.2,1.2-1,1-1.8
		c-0.4-1.6-0.6-3.4-0.5-5.1c0.1-1,0.2-2.1,0.4-3.1c0.4-1,0.7-1.8,0.9-2.4c0,0,0,0,0,0c0.2-0.5,1.1-2.3,1.2-2.5
		c5.7-9.1,18.2-10.6,25.9-3.3c3.2,3,5,7.1,5.2,11.5c0,0.7,0.5,1.2,1.2,1.4c6.4,1.3,11.1,7,11.1,13.6c0,0.8,0.7,1.5,1.5,1.5h3.8
		c2.3,0,4.1,1.9,4.1,4.1V90.4z"/>
	<path class="st3" d="M48.2,76.3c0.6-0.4,1.3-0.6,2.1-0.6c2,0,3.7,1.6,3.7,3.7c0,0.8,0.7,1.5,1.5,1.5c0.8,0,1.5-0.7,1.5-1.5
		c0-3.6-3-6.6-6.6-6.6c-1.3,0-2.6,0.4-3.7,1.1c-0.7,0.5-0.8,1.4-0.4,2C46.6,76.6,47.6,76.8,48.2,76.3z"/>
	<path class="st3" d="M21.9,79.4c-0.5,0.6-0.4,1.6,0.3,2.1c0.3,0.2,0.6,0.3,0.9,0.3c0.4,0,0.9-0.2,1.2-0.6c0.6-0.8,1.6-1.3,2.6-1.3
		c0.8,0,1.6,0.3,2.2,0.8c0.6,0.5,1.5,0.5,2.1-0.1c0.5-0.6,0.5-1.5-0.1-2.1c-1.1-1-2.6-1.6-4.1-1.6C24.9,77,23.1,77.9,21.9,79.4z"/>
	<path class="st3" d="M31.5,64.6c0.6,0,1.1-0.3,1.3-0.9c0.2-0.4,0.4-0.7,0.7-1c1.2-1.1,3.1-1,4.2,0.2c0.5,0.6,1.5,0.6,2.1,0.1
		c0.6-0.5,0.6-1.5,0.1-2.1c-2.2-2.4-6-2.6-8.4-0.3c-0.6,0.5-1.1,1.2-1.4,1.9c-0.3,0.7,0,1.6,0.7,1.9C31.1,64.5,31.3,64.6,31.5,64.6z
		"/>
</g>
</svg>
