<?xml version="1.0" encoding="utf-8"?>
<!-- Generator: Adobe Illustrator 21.1.0, SVG Export Plug-In . SVG Version: 6.00 Build 0)  -->
<svg version="1.1" id="Layer_1" xmlns="http://www.w3.org/2000/svg" xmlns:xlink="http://www.w3.org/1999/xlink" x="0px" y="0px"
	 viewBox="0 0 42 32" style="enable-background:new 0 0 42 32;" xml:space="preserve">
<style type="text/css">
	.st0{fill:#50688E;}
	.st1{fill:#FF881B;}
</style>
<g>
	<path class="st0" d="M40,6.1v22.3c0,0.1,0,0.2,0,0.2C37.5,26.1,32,20.8,27.8,17l-1.6,1.4c4.2,3.7,9.8,9.1,12.3,11.5h-0.1H3.5H3.4
		c2.6-2.4,8-7.6,12.1-11.3L14,17.2c-4.2,3.8-9.6,9-12,11.3c0-0.1,0-0.1,0-0.2V6L0,4.1v24.2c0,2,1.6,3.7,3.6,3.7h34.8
		c2,0,3.6-1.7,3.6-3.7v-24L40,6.1z"/>
	<path class="st1" d="M15.5,15.9C15.5,15.9,15.5,15.9,15.5,15.9l1.5,1.4c0,0,0,0,0,0c0,0,0.1,0.1,0.1,0.1l1.2,1.1
		c0,0,0.1,0.1,0.1,0.1c0.7,0.7,1.6,1,2.5,1c0.5,0,1-0.1,1.5-0.4L39.7,3.7c0.1-0.1,0.2-0.2,0.3-0.3c0,0,0,0,0,0L41.6,2
		c-0.6-1.2-1.8-2-3.2-2H3.6C2.2,0,1.1,0.8,0.5,1.9l13.7,12.7C14.6,15,15.1,15.5,15.5,15.9z M3.6,2h34.8h0.1
		c-8.5,7.9-14,13-16.3,15.1c-0.3,0.2-0.7,0.5-1.2,0.5s-0.9-0.3-1.2-0.5C17.5,15,11.9,9.8,3.6,2L3.6,2z"/>
</g>
</svg>
