<?xml version="1.0" encoding="utf-8"?>
<!-- Generator: Adobe Illustrator 21.1.0, SVG Export Plug-In . SVG Version: 6.00 Build 0)  -->
<svg version="1.1" id="Layer_1" xmlns="http://www.w3.org/2000/svg" xmlns:xlink="http://www.w3.org/1999/xlink" x="0px" y="0px"
	 viewBox="0 0 33 46" style="enable-background:new 0 0 33 46;" xml:space="preserve">
<style type="text/css">
	.st0{fill:#50688E;}
	.st1{fill:#FF881B;}
</style>
<path class="st0" d="M16.5,0C7.4,0,0,7.7,0,17.3C0,30,15.2,45,15.8,45.7c0.2,0.2,0.4,0.3,0.7,0.3s0.5-0.1,0.7-0.3
	C17.8,45.1,33,30,33,17.3C33,7.7,25.6,0,16.5,0z M16.5,2.1c8,0,14.4,6.8,14.4,15.1c0,10.3-11.8,23.3-14.4,26.1
	C13.9,40.5,2.1,27.6,2.1,17.2C2.1,8.9,8.5,2.1,16.5,2.1z"/>
<path class="st1" d="M16.4,7.7c-5,0-9,3.9-9,8.6s4.1,8.6,9,8.6s9-3.9,9-8.6S21.4,7.7,16.4,7.7z M16.4,23.3c-4,0-7.3-3.1-7.3-7
	s3.3-7,7.3-7s7.3,3.1,7.3,7S20.4,23.3,16.4,23.3z"/>
</svg>
