<?xml version="1.0" encoding="utf-8"?>
<!-- Generator: Adobe Illustrator 21.1.0, SVG Export Plug-In . SVG Version: 6.00 Build 0)  -->
<svg version="1.1" id="Layer_1" xmlns="http://www.w3.org/2000/svg" xmlns:xlink="http://www.w3.org/1999/xlink" x="0px" y="0px"
	 viewBox="0 0 26 50" style="enable-background:new 0 0 26 50;" xml:space="preserve">
<style type="text/css">
	.st0{fill:#FF881A;}
	.st1{fill:#50688E;}
</style>
<path class="st0" d="M17.6,3l-0.2,1H8.6L8.4,3h-2l0.4,2.2c0,0.2,0.2,0.4,0.3,0.6C7.3,6,7.5,6.1,7.7,6.1h10.5c0.2,0,0.5-0.1,0.6-0.2
	c0.2-0.2,0.3-0.4,0.3-0.6L19.5,3H17.6z"/>
<path class="st1" d="M24.8,1.2C24.1,0.4,23.1,0,22,0H4C2.9,0,1.9,0.4,1.2,1.2C0.4,2,0,3.1,0,4.2v41.5c0,1.1,0.4,2.2,1.2,3
	C1.9,49.6,2.9,50,4,50h18c1.1,0,2.1-0.4,2.8-1.2c0.8-0.8,1.2-1.9,1.2-3V4.2C26,3.1,25.6,2,24.8,1.2z M24,45.7c0,0.6-0.2,1.1-0.6,1.5
	c-0.4,0.4-0.9,0.6-1.4,0.6H4c-0.5,0-1-0.2-1.4-0.6C2.2,46.9,2,46.3,2,45.8V4.2c0-0.6,0.2-1.1,0.6-1.5c0.2-0.2,0.5-0.4,0.8-0.5h2.8
	l0,0h2l0,0h9.6l0,0h1.9l0,0H22c0.5,0,1,0.2,1.4,0.6C23.8,3.1,24,3.7,24,4.2V45.7z"/>
</svg>
