<?xml version="1.0" encoding="utf-8"?>
<!-- Generator: Adobe Illustrator 21.1.0, SVG Export Plug-In . SVG Version: 6.00 Build 0)  -->
<svg version="1.1" id="Layer_1" xmlns="http://www.w3.org/2000/svg" xmlns:xlink="http://www.w3.org/1999/xlink" x="0px" y="0px"
	 viewBox="0 0 42 32" style="enable-background:new 0 0 42 32;" xml:space="preserve">
<style type="text/css">
	.st0{fill:#B3CAEC;}
</style>
<path class="st0" d="M38.4,0H3.6C1.6,0,0,1.7,0,3.7v24.7c0,2,1.6,3.7,3.6,3.7h34.8c2,0,3.6-1.7,3.6-3.7V3.7C42,1.6,40.4,0,38.4,0z
	 M15.5,15.9C11.1,19.6,4.7,25.9,2,28.4c0-0.1,0-0.1,0-0.2V3.7c0-0.1,0-0.2,0-0.3C5.2,6.3,11.4,12.1,15.5,15.9z M22.2,17
	c-0.3,0.2-0.7,0.5-1.2,0.5s-0.9-0.3-1.2-0.5C17.5,15,11.9,9.8,3.5,2h0.1h34.8h0.1C30.1,9.9,24.5,15,22.2,17z M17,17.2
	c0.5,0.5,1,1,1.4,1.3c0.7,0.7,1.6,1,2.5,1c0.9,0,1.8-0.4,2.5-1c0.4-0.4,0.9-0.8,1.4-1.3c4.3,3.7,10.8,10,13.6,12.7h-0.1H3.5H3.4
	C6.3,27.2,12.7,21,17,17.2z M26.5,15.9C30.6,12.1,36.8,6.3,40,3.4c0,0.1,0,0.2,0,0.3v24.7c0,0.1,0,0.2,0,0.2
	C37.2,25.9,30.8,19.6,26.5,15.9z"/>
</svg>
