<?xml version="1.0" encoding="utf-8"?>
<!-- Generator: Adobe Illustrator 21.1.0, SVG Export Plug-In . SVG Version: 6.00 Build 0)  -->
<svg version="1.1" id="Layer_1" xmlns="http://www.w3.org/2000/svg" xmlns:xlink="http://www.w3.org/1999/xlink" x="0px" y="0px"
	 viewBox="0 0 26 50" style="enable-background:new 0 0 26 50;" xml:space="preserve">
<style type="text/css">
	.st0{fill:#B3CAEC;}
</style>
<path class="st0" d="M24.8,1.2C24.1,0.4,23.1,0,22,0H4C2.9,0,1.9,0.4,1.2,1.2C0.4,2,0,3.1,0,4.2v41.5c0,1.1,0.4,2.2,1.2,3
	C1.9,49.6,2.9,50,4,50h18c1.1,0,2.1-0.4,2.8-1.2c0.8-0.8,1.2-1.9,1.2-3V4.2C26,3.1,25.6,2,24.8,1.2z M8.2,2.1h9.6L17.4,4H8.6
	L8.2,2.1z M2,4.2c0-0.6,0.2-1.1,0.6-1.5S3.5,2.1,4,2.1h2.2l0.6,3.1c0,0.2,0.2,0.4,0.3,0.6C7.3,6,7.5,6.1,7.7,6.1h10.5
	c0.2,0,0.5-0.1,0.6-0.2c0.2-0.2,0.3-0.4,0.3-0.6l0.6-3.1H22c0.5,0,1,0.2,1.4,0.6C23.8,3.1,24,3.7,24,4.2v41.5c0,0.6-0.2,1.1-0.6,1.5
	c-0.4,0.4-0.9,0.6-1.4,0.6H4c-0.5,0-1-0.2-1.4-0.6C2.2,46.9,2,46.3,2,45.8V4.2z"/>
</svg>
