<?xml version="1.0" encoding="utf-8"?>
<!-- Generator: Adobe Illustrator 21.1.0, SVG Export Plug-In . SVG Version: 6.00 Build 0)  -->
<svg version="1.1" id="Layer_1" xmlns="http://www.w3.org/2000/svg" xmlns:xlink="http://www.w3.org/1999/xlink" x="0px" y="0px"
	 viewBox="0 0 46 45" style="enable-background:new 0 0 46 45;" xml:space="preserve">
<style type="text/css">
	.st0{fill:#B3CAEC;}
</style>
<path class="st0" d="M22.5,5.9c-4.3,0-7.7,3.5-7.7,7.7s3.5,7.7,7.7,7.7c4.3,0,7.7-3.5,7.7-7.7S26.7,5.9,22.5,5.9z M28.2,13.5
	c0,3.2-2.6,5.6-5.7,5.7c-3.2,0-5.7-2.6-5.7-5.7s2.7-5.6,5.8-5.6S28.2,10.5,28.2,13.5z"/>
<path class="st0" d="M44.9,20.4C43.8,8.8,34.2,0,22.5,0C10,0,0,10.1,0,22.5S10.1,45,22.5,45c0.7,0,1.4,0,2-0.1
	c0.6-0.1,1.2-0.1,1.9-0.3h0.2C38.1,42.3,46,32,44.9,20.4z M29.7,41.9l-0.2-0.2h-0.1c-0.5,0.2-1.1,0.4-1.6,0.5h-0.1
	c-0.6,0.1-1.1,0.3-1.6,0.4v0.2L26,42.6c-0.6,0.1-1.2,0.2-1.7,0.2h-0.1c-1.3,0.1-2.5,0.1-3.6,0c-0.6,0-1.1-0.1-1.7-0.2v0.2v-0.3
	c-0.5-0.1-1.1-0.2-1.6-0.4h-0.1c-0.5-0.1-1-0.3-1.6-0.5l-0.1-0.1c-0.5-0.2-1-0.4-1.5-0.6l-0.2-0.1c-0.4-0.2-0.9-0.4-1.4-0.7L12.2,40
	c-0.4-0.3-0.9-0.5-1.3-0.8l-0.2-0.1c-0.4-0.3-0.8-0.6-1.2-1V32c0-4.3,3.6-7.9,7.9-7.9h10.2c4.4,0,7.9,3.6,7.9,7.9v6.1
	c-0.4,0.3-0.8,0.7-1.3,1L34,39.2c-0.4,0.3-0.9,0.6-1.4,0.9l-0.1,0.1c-0.5,0.3-1,0.5-1.4,0.7c-0.1,0-0.1,0-0.2,0.1
	c-0.5,0.2-1,0.4-1.5,0.6L29.7,41.9z M27.7,22.2H17.3c-5.4,0-9.9,4.4-9.9,9.9v4.2C0,28.3,0.2,15.7,8,7.9C16,0,29,0,36.9,7.9
	c7.8,7.8,8,20.3,0.6,28.4v-4.2C37.6,26.6,33.1,22.2,27.7,22.2z"/>
</svg>
