<?xml version="1.0" encoding="utf-8"?>
<!-- Generator: Adobe Illustrator 21.1.0, SVG Export Plug-In . SVG Version: 6.00 Build 0)  -->
<svg version="1.1" id="Capa_1" xmlns="http://www.w3.org/2000/svg" xmlns:xlink="http://www.w3.org/1999/xlink" x="0px" y="0px"
	 viewBox="0 0 35 25.6" style="enable-background:new 0 0 35 25.6;" xml:space="preserve">
<style type="text/css">
	.st0{fill:#496896;}
	.st1{fill:#FD882A;}
</style>
<g>
	<path class="st0" d="M3.1,5.7h5.3c0.3,0,0.5-0.2,0.5-0.5c0-0.3-0.2-0.5-0.5-0.5H3.1c-0.3,0-0.5,0.2-0.5,0.5
		C2.6,5.5,2.8,5.7,3.1,5.7z"/>
	<path class="st0" d="M8.2,8.1H6.1c-0.3,0-0.5,0.2-0.5,0.5s0.2,0.5,0.5,0.5h2.1c0.3,0,0.5-0.2,0.5-0.5S8.4,8.1,8.2,8.1z"/>
	<path class="st0" d="M1,11.5h5.1c0.3,0,0.5-0.2,0.5-0.5s-0.2-0.5-0.5-0.5H1c-0.3,0-0.5,0.2-0.5,0.5S0.7,11.5,1,11.5z"/>
	<path class="st0" d="M8.8,20.4c0-0.3-0.2-0.5-0.5-0.5H3.1c-0.3,0-0.5,0.2-0.5,0.5s0.2,0.5,0.5,0.5h5.3C8.6,20.9,8.8,20.6,8.8,20.4z
		"/>
	<path class="st0" d="M8.2,16.5H6.1c-0.3,0-0.5,0.2-0.5,0.5s0.2,0.5,0.5,0.5h2.1c0.3,0,0.5-0.2,0.5-0.5S8.4,16.5,8.2,16.5z"/>
	<path class="st0" d="M6.6,14.5c0-0.3-0.2-0.5-0.5-0.5H1c-0.3,0-0.5,0.2-0.5,0.5C0.5,14.8,0.7,15,1,15h5.1C6.4,15,6.6,14.8,6.6,14.5
		z"/>
	<path class="st1" d="M21.7,6.8c0.3,0,0.5-0.2,0.5-0.5V5.5C22.2,5.3,22,5,21.7,5s-0.5,0.2-0.5,0.5v0.8C21.2,6.6,21.4,6.8,21.7,6.8z"
		/>
	<path class="st1" d="M27.2,7.3c-0.2-0.2-0.5-0.2-0.7,0L26,7.8c-0.2,0.2-0.2,0.5,0,0.7c0.2,0.2,0.5,0.2,0.7,0L27.2,8
		C27.4,7.8,27.4,7.5,27.2,7.3z"/>
	<path class="st1" d="M28.2,12.3c-0.3,0-0.5,0.2-0.5,0.5c0,0.3,0.2,0.5,0.5,0.5H29c0.3,0,0.5-0.2,0.5-0.5c0-0.3-0.2-0.5-0.5-0.5
		H28.2z"/>
	<path class="st1" d="M26.7,17c-0.2-0.2-0.5-0.2-0.7,0c-0.2,0.2-0.2,0.5,0,0.7l0.5,0.5c0.2,0.2,0.5,0.2,0.7,0c0.2-0.2,0.2-0.5,0-0.7
		L26.7,17z"/>
	<path class="st1" d="M21.2,19.3V20c0,0.3,0.2,0.5,0.5,0.5s0.5-0.2,0.5-0.5v-0.8c0-0.3-0.2-0.5-0.5-0.5S21.2,19,21.2,19.3z"/>
	<path class="st1" d="M16.8,17l-0.5,0.5c-0.2,0.2-0.2,0.5,0,0.7c0.2,0.2,0.5,0.2,0.7,0l0.5-0.5c0.2-0.2,0.2-0.5,0-0.7
		C17.3,16.8,17,16.8,16.8,17z"/>
	<path class="st1" d="M14.5,12.3c-0.3,0-0.5,0.2-0.5,0.5c0,0.3,0.2,0.5,0.5,0.5h0.8c0.3,0,0.5-0.2,0.5-0.5c0-0.3-0.2-0.5-0.5-0.5
		H14.5z"/>
	<path class="st1" d="M17.5,7.8l-0.5-0.5c-0.2-0.2-0.5-0.2-0.7,0C16,7.5,16,7.8,16.2,8l0.5,0.5c0.2,0.2,0.5,0.2,0.7,0
		C17.7,8.4,17.7,8,17.5,7.8z"/>
	<path class="st1" d="M24.4,12.8c0-0.3-0.2-0.5-0.5-0.5h-1.7V8.6c0-0.3-0.2-0.5-0.5-0.5c-0.3,0-0.5,0.2-0.5,0.5v4.2
		c0,0.3,0.2,0.5,0.5,0.5h2.2C24.2,13.3,24.4,13.1,24.4,12.8z"/>
	<path class="st1" d="M31.2,12.7c0.3,0,0.5-0.3,0.5-0.5c-0.3-5.2-4.7-9.3-9.9-9.3c-5.5,0-9.9,4.5-9.9,9.9c0,5.5,4.5,9.9,9.9,9.9
		c4.9,0,9.1-3.6,9.8-8.4c0-0.3-0.1-0.5-0.4-0.6c-0.3,0-0.5,0.1-0.6,0.4c-0.7,4.4-4.4,7.6-8.8,7.6c-4.9,0-8.9-4-8.9-8.9
		s4-8.9,8.9-8.9c4.7,0,8.6,3.7,8.9,8.4C30.7,12.5,30.9,12.7,31.2,12.7L31.2,12.7z"/>
	<path class="st0" d="M21.7,0c-1.8,0-3.5,0.4-5,1H7.9C7.6,1,7.4,1.3,7.4,1.5S7.6,2,7.9,2h6.9c-0.9,0.6-1.8,1.3-2.6,2.2
		c-0.2,0.2-0.2,0.5,0,0.7c0.2,0.2,0.5,0.2,0.7,0C15.2,2.4,18.4,1,21.7,1c6.5,0,11.8,5.3,11.8,11.8c0,6.5-5.3,11.8-11.8,11.8
		c-6.5,0-11.8-5.3-11.8-11.8c0-2.3,0.7-4.5,1.9-6.4c0.1-0.2,0.1-0.5-0.1-0.7c-0.2-0.1-0.5-0.1-0.7,0.1c-1.3,2.1-2,4.5-2,6.9
		c0,4.5,2.3,8.5,5.9,10.7H7.9c-0.3,0-0.5,0.2-0.5,0.5s0.2,0.5,0.5,0.5h8.8c1.6,0.7,3.3,1,5.1,1c7,0,12.8-5.7,12.8-12.8
		S28.8,0,21.7,0z"/>
</g>
</svg>
